<svg width="128" height="128" viewBox="0 0 128 128" fill="none" xmlns="http://www.w3.org/2000/svg">
<g clip-path="url(#clip0_88_3805)">
<path d="M128 -0.000488281L0 0L1.96695e-05 5.99997V128H6.00002H122H128V-0.000488281Z" fill="#3178C6"/>
<path fill-rule="evenodd" clip-rule="evenodd" d="M74.2622 99.468V113.494C76.5346 114.662 79.222 115.539 82.3247 116.123C85.4274 116.708 88.6975 117 92.1352 117C95.4855 117 98.6682 116.679 101.683 116.036C104.699 115.393 107.342 114.334 109.615 112.858C111.887 111.382 113.686 109.454 115.012 107.072C116.337 104.691 117 101.747 117 98.2407C117 95.6986 116.621 93.4706 115.864 91.5566C115.106 89.6427 114.014 87.9407 112.586 86.4504C111.159 84.9602 109.447 83.6234 107.452 82.44C105.456 81.2566 103.206 80.1389 100.7 79.087C98.8648 78.3273 97.2188 77.5895 95.7622 76.8736C94.3055 76.1577 93.0674 75.4272 92.0478 74.6821C91.0281 73.9369 90.2415 73.148 89.688 72.3152C89.1345 71.4825 88.8577 70.5401 88.8577 69.4882C88.8577 68.5239 89.1053 67.6546 89.6006 66.8803C90.0959 66.106 90.7951 65.4412 91.6982 64.886C92.6013 64.3309 93.7083 63.8999 95.0193 63.5931C96.3303 63.2862 97.7869 63.1328 99.3892 63.1328C100.555 63.1328 101.785 63.2205 103.082 63.3958C104.378 63.5711 105.682 63.8414 106.993 64.2067C108.304 64.5719 109.578 65.0321 110.817 65.5873C112.055 66.1425 113.198 66.7853 114.247 67.5158V54.4107C112.12 53.5925 109.797 52.9862 107.277 52.5917C104.757 52.1972 101.866 52 98.6026 52C95.2815 52 92.1352 52.3579 89.1636 53.0738C86.1921 53.7897 83.5774 54.9074 81.3196 56.4268C79.0618 57.9463 77.2774 59.8821 75.9665 62.2343C74.6555 64.5865 74 67.3989 74 70.6716C74 74.8501 75.2017 78.4149 77.6052 81.3661C80.0087 84.3174 83.6575 86.8157 88.5518 88.8611C90.4746 89.65 92.2663 90.4244 93.9268 91.1841C95.5874 91.9438 97.0222 92.7327 98.2312 93.5509C99.4402 94.3691 100.394 95.2603 101.093 96.2245C101.793 97.1888 102.142 98.2845 102.142 99.5118C102.142 100.418 101.924 101.258 101.487 102.032C101.05 102.806 100.387 103.478 99.4985 104.048C98.6099 104.618 97.5029 105.064 96.1773 105.385C94.8518 105.706 93.3005 105.867 91.5234 105.867C88.4935 105.867 85.4929 105.334 82.5213 104.267C79.5498 103.201 76.7968 101.601 74.2622 99.468V99.468ZM50.7026 64.5544H69V53H18V64.5544H36.2079V116H50.7026V64.5544Z" fill="white"/>
</g>
<defs>
<clipPath id="clip0_88_3805">
<rect width="128" height="128" fill="white"/>
</clipPath>
</defs>
</svg>
