<svg width="1136" height="648" viewBox="0 0 1136 648" fill="none" xmlns="http://www.w3.org/2000/svg">
<g clip-path="url(#clip0)">
<path d="M248 300.523C295.496 300.523 334 262.019 334 214.523C334 167.026 295.496 128.523 248 128.523C200.504 128.523 162 167.026 162 214.523C162 262.019 200.504 300.523 248 300.523Z" fill="#FF6584"/>
<path d="M1100.4 611.792C1095.34 616.343 1090.02 620.594 1084.47 624.522C1071.29 633.793 1057.04 641.451 1042.04 647.332C979.69 645.832 888.03 638.183 772.33 634.102C763.7 631.153 754.873 627.959 745.85 624.522C733.91 619.972 721.627 614.972 709 609.522C656.56 586.862 602.72 572.132 549.39 563.332C537.93 561.442 526.5 559.822 515.1 558.472C274.28 529.672 52.2 614.292 26.48 624.523H24L39.82 593.883L309 72.5225L371.95 234.143L392.04 285.733L447.41 209.753L476 170.523L606.2 319.793L643 238.523L897.78 446.443L911.99 458.033L926.37 469.773L930.95 473.513L1067.16 584.672L1100.4 611.792Z" fill="#F2F2F2"/>
<path opacity="0.1" d="M285 177.523L311 120.523L347 203.523L316 143.523L285 177.523Z" fill="black"/>
<path opacity="0.1" d="M549.39 563.333C537.93 561.443 526.5 559.823 515.1 558.473L392.04 285.732L549.39 563.333Z" fill="black"/>
<path opacity="0.1" d="M447.411 209.752L476 187.523L606 337.523L474 209.523L447.411 209.752Z" fill="black"/>
<path opacity="0.1" d="M606.197 319.789L866 568.523L830.464 576.904L606.197 319.789Z" fill="black"/>
<path d="M1136 625.023C1136 644.393 1103.04 648.803 1042.04 647.333C979.69 645.833 888.03 638.182 772.33 634.102C728.57 632.562 681.36 631.523 631 631.523C317.3 631.523 0 671.693 0 625.023C0 614.023 14.12 603.523 39.82 593.883C116.02 565.303 294 544.372 507.22 541.002C516.92 540.842 526.69 540.726 536.53 540.653C546.95 540.563 557.44 540.519 568 540.523C652.77 540.523 733.21 543.282 805.46 548.232C805.69 548.252 805.91 548.272 806.14 548.283C811.94 548.683 817.683 549.096 823.37 549.523C829.58 549.993 835.723 550.476 841.8 550.973C843.05 551.073 844.3 551.172 845.54 551.283C846.44 551.352 847.34 551.433 848.23 551.513C849.87 551.643 851.51 551.783 853.13 551.933C853.187 551.931 853.244 551.934 853.3 551.943C856.28 552.203 859.24 552.463 862.18 552.723C862.49 552.753 862.8 552.783 863.11 552.802C948.56 560.552 1019.18 571.562 1067.16 584.672C1111.06 596.663 1136 610.403 1136 625.023Z" fill="#48ADF5"/>
<path d="M70.8867 458.182C70.8867 522.198 111.047 573.999 160.678 573.999L70.8867 458.182Z" fill="#91C983"/>
<path d="M160.678 573.999C160.678 509.264 205.494 456.881 260.879 456.881L160.678 573.999Z" fill="#48ADF5"/>
<path d="M103.42 463.985C103.42 524.794 129.029 573.999 160.678 573.999L103.42 463.985Z" fill="#48ADF5"/>
<path d="M160.678 573.999C160.678 491.282 212.479 424.348 276.495 424.348L160.678 573.999Z" fill="#91C983"/>
<path d="M141.788 574.816C141.788 574.816 154.522 574.423 158.359 571.691C162.197 568.958 177.947 565.695 178.899 570.078C179.851 574.46 198.036 591.875 183.659 591.991C169.283 592.107 150.255 589.752 146.425 587.419C142.594 585.086 141.788 574.816 141.788 574.816Z" fill="#A8A8A8"/>
<path opacity="0.2" d="M183.916 590.466C169.539 590.582 150.511 588.226 146.681 585.893C143.764 584.116 142.602 577.741 142.213 574.799C141.944 574.811 141.788 574.816 141.788 574.816C141.788 574.816 142.594 585.086 146.425 587.419C150.255 589.752 169.283 592.107 183.659 591.991C187.809 591.958 189.243 590.481 189.164 588.295C188.587 589.616 187.005 590.441 183.916 590.466Z" fill="black"/>
<path d="M762.887 449.182C762.887 513.198 803.047 564.999 852.678 564.999L762.887 449.182Z" fill="#91C983"/>
<path d="M852.677 564.999C852.677 500.264 897.494 447.881 952.879 447.881L852.677 564.999Z" fill="#48ADF5"/>
<path d="M795.42 454.985C795.42 515.794 821.029 564.999 852.678 564.999L795.42 454.985Z" fill="#48ADF5"/>
<path d="M852.677 564.999C852.677 482.282 904.479 415.348 968.495 415.348L852.677 564.999Z" fill="#91C983"/>
<path d="M833.788 565.816C833.788 565.816 846.522 565.423 850.359 562.691C854.197 559.958 869.947 556.695 870.899 561.078C871.851 565.46 890.036 582.875 875.659 582.991C861.283 583.107 842.255 580.752 838.425 578.419C834.594 576.086 833.788 565.816 833.788 565.816Z" fill="#A8A8A8"/>
<path opacity="0.2" d="M875.916 581.466C861.539 581.582 842.511 579.226 838.681 576.893C835.764 575.116 834.602 568.741 834.213 565.799C833.944 565.811 833.788 565.816 833.788 565.816C833.788 565.816 834.594 576.086 838.425 578.419C842.255 580.752 861.283 583.107 875.659 582.991C879.809 582.958 881.243 581.481 881.164 579.295C880.587 580.616 879.005 581.441 875.916 581.466Z" fill="black"/>
<path d="M499 440.479H481V472.566H499V440.479Z" fill="#5C5C5C"/>
<path d="M490 452.609C491.945 452.609 493.522 451.033 493.522 449.088C493.522 447.143 491.945 445.566 490 445.566C488.055 445.566 486.478 447.143 486.478 449.088C486.478 451.033 488.055 452.609 490 452.609Z" fill="#F2F2F2"/>
<path d="M492.182 413.059C492.182 413.059 486.704 444.834 496.565 445.93C506.426 447.025 497.661 411.963 497.661 411.963L492.182 413.059Z" fill="#F8D9C8"/>
<path d="M498.756 304.586C498.756 304.586 487.252 413.607 490.539 415.25C493.826 416.894 502.591 419.085 504.235 417.442C505.878 415.798 512.453 348.413 512.453 348.413L507.522 313.351L498.756 304.586Z" fill="#525252"/>
<path opacity="0.1" d="M498.756 304.586C498.756 304.586 487.252 413.607 490.539 415.25C493.826 416.894 502.591 419.085 504.235 417.442C505.878 415.798 512.453 348.413 512.453 348.413L507.522 313.351L498.756 304.586Z" fill="#525252"/>
<path d="M554.363 255.554H519.848V292.807H554.363V255.554Z" fill="#2F2E41"/>
<path d="M527.792 272.263C527.792 272.263 526.696 296.368 519.027 298.012C511.357 299.655 526.149 327.595 526.149 327.595L549.158 325.404L554.636 292.533C554.636 292.533 542.036 290.342 546.419 273.359L527.792 272.263Z" fill="#F8D9C8"/>
<path opacity="0.1" d="M527.792 272.263C527.792 272.263 526.696 296.368 519.027 298.012C511.357 299.655 526.149 327.595 526.149 327.595L549.158 325.404L554.636 292.533C554.636 292.533 542.036 290.342 546.419 273.359L527.792 272.263Z" fill="black"/>
<path d="M528.888 547.829L530.531 557.142L540.393 554.951L538.201 545.637L528.888 547.829Z" fill="#F8D9C8"/>
<path d="M560.115 533.585L556.828 543.446L567.237 548.924L567.785 540.707L560.115 533.585Z" fill="#F8D9C8"/>
<path d="M517.383 385.667C517.383 385.667 504.235 424.016 506.974 442.095C509.713 460.174 520.67 546.185 520.67 546.185C520.67 546.185 533.271 554.403 540.94 545.089L535.462 471.678C535.462 471.678 536.558 427.303 540.94 431.686C545.323 436.068 562.306 487.566 562.306 487.566L559.019 534.133C559.019 534.133 560.663 548.377 570.524 542.35L584.22 490.853C584.22 490.853 579.837 421.824 577.646 419.085C575.455 416.346 561.211 384.571 561.211 384.571L517.383 385.667Z" fill="#6384B5"/>
<path d="M539.023 282.946C547.797 282.946 554.91 275.833 554.91 267.058C554.91 258.284 547.797 251.171 539.023 251.171C530.249 251.171 523.135 258.284 523.135 267.058C523.135 275.833 530.249 282.946 539.023 282.946Z" fill="#F8D9C8"/>
<path d="M522.862 306.229C522.862 306.229 528.888 314.995 536.558 308.969C544.227 302.942 548.61 302.394 548.61 302.394L557.924 307.873L555.732 329.239L559.019 388.406C559.019 388.406 519.027 391.693 516.835 387.31C514.644 382.928 519.575 364.301 519.575 364.301L512.453 324.308V306.229H522.862Z" fill="#48ADF5"/>
<path d="M535.462 322.117C535.462 322.117 525.601 291.985 522.314 291.438C519.027 290.89 509.713 297.464 509.713 297.464C509.713 297.464 496.017 301.847 496.017 304.586C496.017 307.325 498.209 307.325 498.209 307.325L505.878 322.117C505.878 322.117 509.166 335.265 508.07 344.031C507.409 349.299 507.226 354.617 507.522 359.918C507.522 359.918 495.469 432.234 501.496 434.425C507.522 436.616 507.522 438.808 507.522 438.808C507.522 438.808 516.287 443.738 517.931 441.547C519.574 439.356 535.462 345.126 535.462 345.126C535.462 345.126 543.68 329.239 535.462 322.117Z" fill="#525252"/>
<path d="M537.653 322.117C537.653 322.117 542.584 310.612 539.845 302.942C539.845 302.942 542.584 302.394 543.68 300.751C544.775 299.107 543.68 290.89 546.419 290.342C549.158 289.794 569.428 290.342 570.524 291.438C571.62 292.533 574.907 300.203 574.907 300.203H573.263L561.211 319.926C561.211 319.926 567.237 357.179 566.141 363.205C565.045 369.231 582.029 394.432 584.22 396.076C586.411 397.719 596.273 424.016 591.89 426.755C587.507 429.494 549.158 447.025 547.515 438.26C545.871 429.494 534.366 376.901 534.366 376.901C534.366 376.901 533.818 347.866 535.462 340.744C537.105 333.622 537.653 322.117 537.653 322.117Z" fill="#525252"/>
<path d="M563.402 409.772C563.402 409.772 551.897 447.573 563.402 445.93C574.907 444.286 572.168 408.676 572.168 408.676L563.402 409.772Z" fill="#F8D9C8"/>
<path d="M539.321 554.97C539.321 554.97 548.404 557.565 547.755 563.404C547.553 565.101 546.906 566.714 545.881 568.081C544.856 569.447 543.488 570.52 541.916 571.189C540.965 571.807 540.214 572.688 539.754 573.724C539.293 574.761 539.143 575.908 539.321 577.028C539.97 580.921 534.131 586.76 524.399 584.165C514.668 581.57 516.614 578.975 516.614 578.975C517.144 576.096 518.772 573.537 521.156 571.838C525.048 569.243 529.59 560.16 529.59 559.511C529.59 558.863 530.887 554.321 530.887 554.321C530.887 554.321 536.077 551.077 539.321 554.97Z" fill="#DADADA"/>
<path d="M558.471 542.35C558.471 542.35 548.61 546.733 550.802 552.211C552.993 557.69 560.115 565.36 561.211 573.577C562.306 581.795 571.62 588.917 578.194 584.534C584.768 580.151 577.098 571.386 577.098 571.386C577.098 571.386 568.88 556.046 568.333 552.759C567.785 549.472 569.428 546.185 566.141 545.089C562.854 543.994 558.471 542.35 558.471 542.35Z" fill="#DADADA"/>
<path opacity="0.1" d="M572.989 305.955C572.989 305.955 571.62 299.655 573.263 303.49C574.907 307.325 586.959 353.892 576.002 381.832C576.002 381.832 574.907 416.346 573.811 416.346C572.715 416.346 559.567 415.798 560.115 411.963C560.663 408.128 561.759 346.222 561.759 342.387C561.759 338.552 563.676 313.625 563.676 313.625L572.989 305.955Z" fill="black"/>
<path d="M570.524 296.368C572.28 298.547 573.753 300.941 574.907 303.49C576.55 307.325 588.603 353.892 577.646 381.832C577.646 381.832 576.55 416.346 575.455 416.346C574.359 416.346 561.211 415.798 561.758 411.963C562.306 408.128 563.402 346.222 563.402 342.387C563.402 338.552 560.115 312.804 560.115 312.804L570.524 296.368Z" fill="#525252"/>
<path d="M530.067 239.088C524.319 240.885 520.027 245.581 516.026 250.083C514.471 251.675 513.151 253.482 512.108 255.448C511.092 257.954 510.555 260.629 510.525 263.334C510.259 267.525 510.173 271.723 510.27 275.927C510.362 279.954 510.609 284.083 509.371 287.916C508.174 291.622 505.682 294.755 503.971 298.254C501.241 303.835 500.611 310.607 503.131 316.286C504.518 319.412 506.763 322.072 508.44 325.052C511.406 330.36 512.505 336.509 511.56 342.515L519.449 332.295C524.502 325.75 529.714 318.853 531.136 310.707C533.198 298.892 526.895 287.319 525.652 275.39C525.305 272.064 525.421 268.472 527.304 265.708C530.083 261.627 536.128 260.186 537.799 255.541C538.041 257.486 549.694 263.682 551.097 262.476C551.961 264.806 552.211 267.317 551.826 269.771C551.441 272.225 550.432 274.539 548.896 276.491C547.768 277.892 546.381 279.07 545.281 280.492C542.432 284.176 541.784 289.144 542.186 293.783C542.588 298.423 543.924 302.929 544.63 307.533C545.227 312.116 545.512 316.735 545.483 321.357C545.536 324.556 545.448 328.127 543.204 330.408C546.884 329.119 550.246 327.058 553.065 324.365C554.595 322.699 556.239 321.142 557.984 319.703C561.513 317.157 566.294 316.402 569.173 313.139C571.743 310.225 572.153 305.951 571.549 302.114C570.945 298.276 569.473 294.624 568.732 290.81C567.796 285.959 568.058 280.953 569.495 276.226C570.543 272.793 572.215 269.483 572.42 265.9C572.837 258.59 567.201 252.476 561.782 247.552C553.664 240.177 541.092 235.641 530.067 239.088Z" fill="#F2C759"/>
<path d="M995.395 104.367C990.538 106.16 982.012 107.627 972.141 108.811C945.303 112.031 908.521 113.175 908.521 113.175C908.521 113.175 719.496 128.854 577.815 70.544C577.815 70.544 557.207 59.7376 576.35 45.2005C579.291 43.0249 582.419 41.1148 585.698 39.4927C585.698 39.4927 585.777 39.4122 585.934 39.2624C588.108 37.2514 590.459 35.4396 592.957 33.8486C600.296 29.1046 612.691 23.476 627.773 26.0253L999.865 86.2117C999.865 86.2117 1013.46 97.695 995.395 104.367Z" fill="#F2F2F2"/>
<path d="M921.25 77.0922L999.15 21.8212L1033.48 27.7589L999.865 86.211C999.865 86.211 922.145 86.8294 921.25 77.0922Z" fill="#F2F2F2"/>
<path d="M725.129 43.517L880.294 0L905.307 5.226L835.216 36.756L813.306 61.264L725.129 43.517Z" fill="#F2F2F2"/>
<path d="M972.141 108.811C945.303 112.031 908.521 113.175 908.521 113.175C908.521 113.175 719.496 128.854 577.815 70.544C577.815 70.544 557.207 59.7376 576.35 45.2005L576.415 45.4662C576.415 45.4662 606.984 66.1279 753.051 83.3797L972.141 108.811Z" fill="#F2F2F2"/>
<path d="M947.198 107.616L1016.57 135.94L1034 134.005L992.504 102.82C992.504 102.82 942.315 92.1166 947.198 107.616Z" fill="#F2F2F2"/>
<path d="M601.544 48.4917C598.231 48.5497 590.648 42.9959 585.934 39.2624C588.109 37.2514 590.459 35.4396 592.957 33.8486C596.757 36.7653 603.522 41.4881 607.283 41.3199C612.711 41.0769 606.527 48.4055 601.544 48.4917Z" fill="#F2F2F2"/>
<path d="M916.702 205.532L872.163 207.86L746.943 123.42L723.697 107.744L712.398 100.125C733.585 82.2185 820.014 106.908 820.014 106.908C821.67 108.305 822.195 110.625 822.119 113.187C821.977 117.989 819.722 123.641 818.853 125.653C818.644 126.138 818.515 126.41 818.515 126.41L916.702 205.532Z" fill="#F2F2F2"/>
<path d="M995.395 104.367C990.538 106.16 982.012 107.627 972.141 108.811C945.303 112.031 908.521 113.175 908.521 113.175C908.521 113.175 719.496 128.854 577.815 70.544C577.815 70.544 557.207 59.7376 576.35 45.2005C579.291 43.0249 582.419 41.1148 585.698 39.4927C585.698 39.4927 585.777 39.4122 585.934 39.2624C588.108 37.2514 590.459 35.4396 592.957 33.8486C600.296 29.1046 612.691 23.476 627.773 26.0253L999.865 86.2117C999.865 86.2117 1013.46 97.695 995.395 104.367Z" fill="#DADADA"/>
<path d="M921.25 77.0922L999.15 21.8212L1033.48 27.7589L999.865 86.211C999.865 86.211 922.145 86.8294 921.25 77.0922Z" fill="#DADADA"/>
<path d="M725.129 43.517L880.294 0L905.307 5.226L835.216 36.756L813.306 61.264L725.129 43.517Z" fill="#DADADA"/>
<path d="M972.141 108.811C945.303 112.031 908.521 113.175 908.521 113.175C908.521 113.175 719.496 128.854 577.815 70.544C577.815 70.544 557.207 59.7376 576.35 45.2005L576.415 45.4662C576.415 45.4662 606.984 66.1279 753.051 83.3797L972.141 108.811Z" fill="#48ADF5"/>
<path d="M947.198 107.616L1016.57 135.94L1034 134.005L992.504 102.82C992.504 102.82 942.315 92.1166 947.198 107.616Z" fill="#DADADA"/>
<path d="M601.544 48.4917C598.231 48.5497 590.648 42.9959 585.934 39.2624C588.109 37.2514 590.459 35.4396 592.957 33.8486C596.757 36.7653 603.522 41.4881 607.283 41.3199C612.711 41.0769 606.527 48.4055 601.544 48.4917Z" fill="#B9B9B9"/>
<path d="M916.702 205.532L872.163 207.86L746.943 123.42L723.697 107.744L712.398 100.125C733.585 82.2185 820.014 106.908 820.014 106.908C821.67 108.305 822.195 110.625 822.119 113.187C821.977 117.989 819.722 123.641 818.853 125.653C818.644 126.138 818.515 126.41 818.515 126.41L916.702 205.532Z" fill="#DADADA"/>
</g>
<defs>
<clipPath id="clip0">
<rect width="1136" height="647.595" fill="white"/>
</clipPath>
</defs>
</svg>
