<svg width="3334" height="3334" viewBox="0 0 3334 3334" fill="none" xmlns="http://www.w3.org/2000/svg">
<path fill-rule="evenodd" clip-rule="evenodd" d="M1667 0C2587 0 3334 746 3334 1667C3334 2587 2588 3334 1667 3334C747 3334 0 2588 0 1667C0 747 746 0 1667 0ZM1452 1336H1794V1511H1799C1847 1425 1963 1336 2137 1336C2498 1336 2565 1561 2565 1853V2449H2208V1921C2208 1795 2205 1633 2022 1633C1836 1633 1808 1770 1808 1912V2449H1451V1336H1452ZM1205 1027C1205 1129 1122 1213 1019 1213C917 1213 833 1130 833 1027C833 925 916 841 1019 841C1121 841 1205 924 1205 1027ZM834 1336H1205V2449H834V1336Z" fill="#1d53ff"/>
</svg>
