<svg width="112" height="113" viewBox="0 0 112 113" fill="none" xmlns="http://www.w3.org/2000/svg">
<path d="M54.9188 0.000919274C50.3351 0.0222173 45.9578 0.413137 42.1063 1.09467C30.7601 3.09917 28.7 7.29477 28.7 15.0322V25.2509H55.5125V28.6572H28.7H18.6375C10.8451 28.6572 4.02178 33.3409 1.88754 42.2509C-0.574285 52.4639 -0.68348 58.8369 1.88754 69.5009C3.79346 77.4388 8.34508 83.0947 16.1375 83.0947H25.3563V70.8447C25.3563 61.9948 33.0134 54.1884 42.1063 54.1884H68.8875C76.3425 54.1884 82.2938 48.0503 82.2938 40.5634V15.0322C82.2938 7.76583 76.1638 2.30739 68.8875 1.09467C64.2815 0.327944 59.5024 -0.020379 54.9188 0.000919274ZM40.4188 8.21967C43.1883 8.21967 45.45 10.5183 45.45 13.3447C45.45 16.161 43.1883 18.4384 40.4188 18.4384C37.6393 18.4384 35.3875 16.161 35.3875 13.3447C35.3875 10.5183 37.6393 8.21967 40.4188 8.21967Z" fill="url(#paint0_linear_88_3812)"/>
<path d="M85.6377 28.6572V40.5635C85.6377 49.7942 77.8118 57.5635 68.8877 57.5635H42.1064C34.7706 57.5635 28.7002 63.842 28.7002 71.1885V96.7197C28.7002 103.986 35.0188 108.26 42.1064 110.345C50.5938 112.84 58.7327 113.291 68.8877 110.345C75.6379 108.39 82.2939 104.457 82.2939 96.7197V86.501H55.5127V83.0947H82.2939H95.7002C103.493 83.0947 106.396 77.6593 109.106 69.501C111.906 61.1021 111.787 53.0252 109.106 42.251C107.181 34.4935 103.503 28.6572 95.7002 28.6572H85.6377ZM70.5752 93.3135C73.3547 93.3135 75.6064 95.5909 75.6064 98.4072C75.6064 101.234 73.3547 103.532 70.5752 103.532C67.8056 103.532 65.5439 101.234 65.5439 98.4072C65.5439 95.5909 67.8056 93.3135 70.5752 93.3135Z" fill="url(#paint1_linear_88_3812)"/>
<defs>
<linearGradient id="paint0_linear_88_3812" x1="-3.34028e-07" y1="-2.90161e-07" x2="61.8267" y2="52.6849" gradientUnits="userSpaceOnUse">
<stop stop-color="#5A9FD4"/>
<stop offset="1" stop-color="#306998"/>
</linearGradient>
<linearGradient id="paint1_linear_88_3812" x1="69.9309" y1="97.5481" x2="47.7498" y2="66.4658" gradientUnits="userSpaceOnUse">
<stop stop-color="#FFD43B"/>
<stop offset="1" stop-color="#FFE873"/>
</linearGradient>
</defs>
</svg>
