<svg width="52" height="52" viewBox="0 0 52 52" fill="none" xmlns="http://www.w3.org/2000/svg">
<rect width="52" height="52" rx="11" fill="#1D53FF"/>
<path d="M24.8242 34H12.752V31.5391L19.834 21.9004H13.1758V18.7148H24.5781V21.4219L17.6875 30.8145H24.8242V34ZM38.5234 29.4609C38.5234 30.5 38.2773 31.3796 37.7852 32.0996C37.3021 32.8105 36.5775 33.3529 35.6113 33.7266C34.6452 34.0911 33.4421 34.2734 32.002 34.2734C30.9355 34.2734 30.0195 34.2051 29.2539 34.0684C28.4974 33.9316 27.7318 33.7038 26.957 33.3848V29.9395C27.7865 30.3132 28.6751 30.623 29.623 30.8691C30.5801 31.1061 31.4186 31.2246 32.1387 31.2246C32.9499 31.2246 33.5286 31.1061 33.875 30.8691C34.2305 30.623 34.4082 30.304 34.4082 29.9121C34.4082 29.6569 34.3353 29.429 34.1895 29.2285C34.0527 29.0189 33.752 28.7865 33.2871 28.5312C32.8223 28.2669 32.0931 27.9251 31.0996 27.5059C30.1426 27.1048 29.3542 26.6992 28.7344 26.2891C28.1237 25.8789 27.668 25.3958 27.3672 24.8398C27.0755 24.2747 26.9297 23.5592 26.9297 22.6934C26.9297 21.2806 27.4766 20.2188 28.5703 19.5078C29.6732 18.7878 31.1452 18.4277 32.9863 18.4277C33.9342 18.4277 34.8366 18.5234 35.6934 18.7148C36.5592 18.9062 37.4479 19.2116 38.3594 19.6309L37.1016 22.6387C36.3451 22.3105 35.6296 22.0417 34.9551 21.832C34.2897 21.6224 33.6107 21.5176 32.918 21.5176C32.3073 21.5176 31.847 21.5996 31.5371 21.7637C31.2272 21.9277 31.0723 22.1784 31.0723 22.5156C31.0723 22.7617 31.1497 22.9805 31.3047 23.1719C31.4688 23.3633 31.7786 23.5775 32.2344 23.8145C32.6992 24.0423 33.3783 24.3385 34.2715 24.7031C35.1374 25.0586 35.8893 25.4323 36.5273 25.8242C37.1654 26.207 37.6576 26.6855 38.0039 27.2598C38.3503 27.8249 38.5234 28.5586 38.5234 29.4609Z" fill="white"/>
</svg>
