<?xml version="1.0" standalone="no"?>
<!DOCTYPE svg PUBLIC "-//W3C//DTD SVG 20010904//EN"
 "http://www.w3.org/TR/2001/REC-SVG-20010904/DTD/svg10.dtd">
<svg version="1.0" xmlns="http://www.w3.org/2000/svg"
 width="662.000000pt" height="662.000000pt" viewBox="0 0 662.000000 662.000000"
 preserveAspectRatio="xMidYMid meet">
<metadata>
Created by potrace 1.11, written by Peter Selinger 2001-2013
</metadata>
<g transform="translate(0.000000,662.000000) scale(0.100000,-0.100000)"
fill="#000000" stroke="none">
<path d="M1879 5170 l-35 -5 0 -370 c0 -203 3 -372 7 -375 4 -3 404 -5 888 -4
485 0 884 -3 887 -8 3 -4 -2 -11 -10 -14 -9 -3 -16 -12 -16 -19 0 -7 -4 -15
-9 -17 -8 -3 -69 -76 -176 -213 -16 -21 -35 -43 -40 -49 -6 -6 -24 -29 -40
-51 -17 -22 -32 -42 -35 -45 -4 -3 -19 -23 -35 -45 -17 -22 -33 -42 -36 -45
-3 -3 -63 -81 -133 -175 -70 -93 -133 -178 -141 -187 -7 -9 -19 -26 -25 -38
-6 -12 -19 -30 -28 -40 -23 -25 -33 -39 -56 -75 -11 -16 -23 -34 -28 -40 -33
-40 -78 -105 -78 -114 0 -5 -3 -11 -7 -13 -5 -1 -28 -32 -52 -68 -25 -36 -47
-67 -50 -70 -4 -3 -12 -14 -19 -25 -33 -53 -52 -81 -59 -90 -29 -35 -83 -117
-83 -125 0 -6 -3 -10 -7 -10 -5 0 -26 -28 -48 -63 -22 -34 -43 -66 -48 -72 -4
-5 -39 -57 -77 -115 -38 -58 -72 -109 -77 -115 -16 -20 -63 -95 -63 -100 0 -3
-9 -15 -20 -27 -11 -12 -20 -28 -20 -35 0 -7 -4 -13 -10 -13 -5 0 -10 -5 -10
-11 0 -6 -13 -30 -30 -54 -16 -24 -30 -48 -30 -54 0 -6 -4 -11 -9 -11 -5 0
-14 -13 -21 -30 -7 -17 -16 -30 -21 -30 -5 0 -9 -4 -9 -10 0 -5 -19 -40 -42
-77 -42 -70 -50 -84 -108 -188 -19 -33 -37 -62 -40 -65 -26 -23 -30 -74 -29
-325 l1 -264 27 0 c27 -1 52 -1 74 -1 6 1 33 0 59 -1 26 -2 50 0 53 3 4 3 20
2 36 -2 16 -5 31 -5 34 0 3 4 20 4 39 0 19 -4 40 -4 47 0 7 5 22 4 35 0 12 -5
24 -6 27 -3 8 8 147 9 147 1 0 -4 13 -3 28 2 16 4 35 4 43 -1 8 -4 21 -4 29 1
7 4 23 4 36 0 12 -5 25 -6 28 -3 4 4 25 6 49 5 99 -4 127 -3 137 3 5 3 10 2
10 -4 0 -6 11 -6 29 -1 15 4 34 4 41 0 7 -5 23 -4 36 0 12 5 24 7 26 4 8 -8
99 -10 104 -3 2 4 18 4 34 -1 16 -5 32 -5 35 0 3 4 20 4 39 0 19 -4 40 -4 47
0 7 5 22 4 35 0 12 -5 25 -6 28 -3 8 8 112 6 126 -2 5 -3 10 -3 10 2 0 4 16 8
35 8 19 0 35 -3 35 -7 0 -4 13 -3 30 2 17 5 32 5 35 0 3 -5 15 -6 28 -1 13 5
30 5 38 1 8 -5 21 -5 28 0 8 4 27 4 42 0 16 -5 29 -5 29 0 0 4 15 5 33 1 17
-4 46 -4 62 -1 17 4 39 3 51 -1 11 -4 27 -3 34 1 8 5 18 6 22 3 12 -7 96 -8
103 -1 4 3 20 2 36 -2 16 -5 31 -5 34 0 3 4 20 4 39 0 19 -4 40 -4 47 0 7 5
22 4 35 0 12 -5 24 -6 27 -3 8 8 147 9 147 1 0 -4 13 -3 28 2 16 4 35 4 43 -1
8 -4 21 -4 29 1 7 4 23 4 36 0 12 -5 25 -6 28 -3 4 4 25 6 49 5 99 -4 127 -3
137 3 5 3 10 2 10 -4 0 -6 11 -6 29 -1 15 4 34 4 41 0 7 -5 23 -4 36 0 12 5
24 6 27 4 3 -3 27 -5 54 -5 26 1 58 1 71 1 l22 0 0 378 0 377 -1007 -1 c-555
0 -1011 1 -1015 3 -8 4 79 149 191 318 36 55 68 105 71 110 3 6 19 30 35 54
17 24 37 54 45 67 59 89 340 488 372 529 5 6 37 51 73 100 36 50 73 100 82
111 10 12 23 28 28 36 13 20 70 97 95 128 25 32 98 127 130 170 14 19 36 47
50 64 30 37 36 44 100 126 60 76 102 128 150 185 19 22 53 63 75 90 22 26 49
59 60 71 11 12 34 39 50 59 17 21 39 47 50 59 11 13 43 49 70 81 54 64 144
163 186 204 14 14 31 35 37 46 6 13 10 131 10 323 l0 302 -21 0 c-168 4 -2902
4 -2928 0z"/>
</g>
</svg>
