<svg width="545" height="133" viewBox="0 0 545 133" fill="none" xmlns="http://www.w3.org/2000/svg">
<mask id="mask0_223_62" style="mask-type:luminance" maskUnits="userSpaceOnUse" x="0" y="0" width="545" height="133">
<path d="M0 0H545V132.888H0V0Z" fill="white"/>
</mask>
<g mask="url(#mask0_223_62)">
<path d="M215.711 106.547H232.832L201.633 17.6969H181.788L150.589 106.547H167.71L175.021 84.6641H208.354L215.711 106.547ZM179.381 71.6983L191.37 35.9404H192.051L204.04 71.6983H179.381ZM249.771 67.5132V106.547H234.104V39.9437H249.089V51.272H249.862C251.406 47.5411 253.858 44.5842 257.218 42.4002C260.579 40.2167 264.757 39.1252 269.707 39.1252C274.294 39.1252 278.29 40.1261 281.742 42.0821C285.148 44.0382 287.827 46.9045 289.689 50.6348C291.596 54.3656 292.505 58.8694 292.459 64.1921V106.547H276.792V66.558C276.792 62.0993 275.656 58.642 273.34 56.0943C271.024 53.5922 267.891 52.3184 263.849 52.3184C261.124 52.3184 258.672 52.9094 256.537 54.1377C254.403 55.3209 252.768 57.0495 251.542 59.3242C250.406 61.5533 249.771 64.2827 249.771 67.5132ZM327.018 132.888C321.387 132.888 316.573 132.115 312.531 130.613C308.49 129.112 305.265 127.065 302.813 124.517C300.361 121.969 298.635 119.149 297.727 116.055L311.85 112.643C312.486 113.962 313.394 115.236 314.62 116.51C315.846 117.784 317.481 118.876 319.525 119.74C321.569 120.604 324.202 121.014 327.336 121.014C331.786 121.014 335.465 119.922 338.371 117.784C341.278 115.646 342.731 112.097 342.731 107.184V94.5818H341.959C341.142 96.2198 339.961 97.8578 338.417 99.5865C336.873 101.315 334.829 102.725 332.331 103.863C329.788 105 326.655 105.591 322.84 105.591C317.754 105.591 313.122 104.363 308.944 101.952C304.812 99.5409 301.496 95.9012 299.089 91.1245C296.637 86.3021 295.411 80.2971 295.411 73.0178C295.411 65.739 296.637 59.506 299.089 54.4563C301.542 49.4065 304.811 45.585 308.989 42.9467C313.167 40.3079 317.799 39.034 322.885 39.034C326.791 39.034 330.015 39.6707 332.513 40.9901C335.056 42.3095 337.054 43.9014 338.553 45.7218C340.052 47.5411 341.187 49.2703 341.959 50.9078H342.822V39.8986H358.262V107.593C358.262 113.28 356.9 118.011 354.175 121.742C351.45 125.472 347.772 128.247 343.049 130.113C338.326 131.978 332.967 132.888 327.018 132.888ZM327.154 93.2629C330.47 93.2629 333.285 92.4439 335.647 90.8515C337.963 89.214 339.779 86.8937 340.96 83.8907C342.186 80.8426 342.777 77.2035 342.777 72.9722C342.777 68.7414 342.186 65.1018 340.96 61.963C339.779 58.8238 338.008 56.3673 335.692 54.593C333.376 52.8638 330.515 51.9542 327.154 51.9542C323.794 51.9542 320.751 52.8638 318.39 54.6842C316.074 56.5035 314.302 59.0056 313.122 62.1449C311.941 65.3292 311.351 68.9233 311.351 72.9271C311.351 76.9305 311.941 80.5701 313.167 83.6182C314.348 86.6663 316.119 89.0316 318.48 90.7152C320.797 92.3983 323.703 93.2629 327.154 93.2629ZM405.719 78.5229V39.9437H421.386V106.547H406.173V94.7185H405.492C403.993 98.4489 401.541 101.497 398.089 103.863C394.683 106.229 390.46 107.411 385.464 107.411C381.105 107.411 377.245 106.456 373.93 104.499C370.614 102.543 367.98 99.7227 366.118 95.9468C364.256 92.2165 363.303 87.6671 363.303 82.3444V39.9437H379.016V79.9329C379.016 84.1637 380.151 87.5304 382.467 89.9874C384.783 92.4895 387.826 93.7177 391.55 93.7177C393.866 93.7177 396.091 93.1717 398.271 92.0341C400.451 90.897 402.222 89.214 403.63 86.9844C405.038 84.7097 405.719 81.889 405.719 78.5229ZM442.185 17.6975V106.547H426.518V17.6969H442.185V17.6975ZM467.072 107.866C462.848 107.866 459.079 107.093 455.718 105.591C452.358 104.09 449.678 101.816 447.771 98.8586C445.818 95.9012 444.864 92.2165 444.864 87.849C444.864 84.073 445.546 80.9794 446.954 78.5229C448.361 76.0659 450.223 74.1098 452.63 72.6085C455.037 71.1523 457.716 70.0153 460.759 69.2419C463.756 68.4684 466.89 67.9224 470.114 67.5588C474.02 67.149 477.153 66.7854 479.606 66.4668C482.013 66.1482 483.784 65.6022 484.919 64.9199C486.008 64.1921 486.599 63.1001 486.599 61.5989V61.3259C486.599 58.0504 485.646 55.5483 483.692 53.7284C481.74 51.9542 478.97 51.044 475.337 51.044C471.477 51.044 468.479 51.863 466.209 53.5461C463.983 55.2297 462.485 57.1858 461.667 59.506L447.044 57.4132C448.18 53.3643 450.087 49.9981 452.766 47.2225C455.4 44.493 458.67 42.4463 462.485 41.0813C466.345 39.7163 470.568 39.034 475.201 39.034C478.425 39.034 481.604 39.3977 484.782 40.1711C487.961 40.9445 490.868 42.1727 493.502 43.902C496.136 45.6306 498.225 47.9509 499.859 50.9078C501.449 53.8647 502.266 57.5499 502.266 61.963V106.547H487.189V97.4024H486.69C485.736 99.2679 484.42 100.997 482.694 102.589C480.968 104.181 478.834 105.501 476.245 106.456C473.566 107.411 470.568 107.866 467.072 107.866ZM471.159 96.356C474.292 96.356 477.017 95.7194 479.333 94.4911C481.649 93.2173 483.42 91.5793 484.691 89.4864C485.964 87.3941 486.553 85.1195 486.553 82.6624V74.792C486.054 75.2018 485.236 75.5654 484.056 75.9296C482.875 76.2933 481.603 76.5663 480.151 76.8393C478.697 77.1123 477.29 77.3397 475.882 77.5215C474.474 77.7039 473.248 77.8857 472.203 78.0225C469.887 78.3405 467.753 78.8409 465.936 79.5688C464.074 80.2971 462.621 81.298 461.577 82.5718C460.487 83.8456 459.987 85.5287 459.987 87.5304C459.987 90.4422 461.032 92.6257 463.166 94.0813C465.21 95.6282 467.889 96.356 471.159 96.356ZM507.035 106.547V39.9437H522.248V51.0446H522.929C524.156 47.1775 526.245 44.22 529.196 42.1272C532.148 40.0349 535.554 38.9884 539.369 38.9884C540.232 38.9884 541.231 39.034 542.275 39.0791C543.365 39.1703 544.274 39.2614 545 39.3977V53.8196C544.319 53.5917 543.275 53.3643 541.867 53.1824C540.496 53.0041 539.116 52.9131 537.734 52.91C534.873 52.91 532.33 53.5466 530.059 54.7749C527.789 56.0031 526.018 57.6862 524.701 59.8702C523.384 62.0537 522.748 64.5558 522.748 67.3764V106.547H507.035ZM123.25 21.7914L118.8 91.8067L76.2484 0L123.25 21.7914ZM93.7777 112.325L61.6255 130.704L29.4727 112.325L36.0122 96.4472H87.2383L93.7777 112.325ZM61.6255 34.8483L78.4733 75.884H44.7771L61.6255 34.8483ZM4.40495 91.8067L0 21.7914L47.0021 0L4.40495 91.8067Z" fill="url(#paint0_linear_223_62)"/>
<path d="M215.711 106.547H232.832L201.633 17.6969H181.788L150.589 106.547H167.71L175.021 84.6641H208.354L215.711 106.547ZM179.381 71.6983L191.37 35.9404H192.051L204.04 71.6983H179.381ZM249.771 67.5132V106.547H234.104V39.9437H249.089V51.272H249.862C251.406 47.5411 253.858 44.5842 257.218 42.4002C260.579 40.2167 264.757 39.1252 269.707 39.1252C274.294 39.1252 278.29 40.126 281.742 42.0821C285.148 44.0382 287.827 46.9044 289.689 50.6348C291.596 54.3656 292.505 58.8694 292.459 64.1921V106.547H276.792V66.558C276.792 62.0993 275.656 58.642 273.34 56.0943C271.024 53.5922 267.891 52.3184 263.849 52.3184C261.124 52.3184 258.672 52.9094 256.537 54.1377C254.403 55.3209 252.768 57.0495 251.542 59.3242C250.406 61.5533 249.771 64.2827 249.771 67.5132ZM327.018 132.888C321.387 132.888 316.573 132.115 312.531 130.613C308.49 129.112 305.265 127.065 302.813 124.517C300.361 121.969 298.635 119.149 297.727 116.055L311.85 112.643C312.486 113.962 313.394 115.236 314.62 116.51C315.846 117.784 317.481 118.876 319.525 119.74C321.569 120.604 324.202 121.014 327.336 121.014C331.786 121.014 335.465 119.922 338.371 117.784C341.278 115.646 342.731 112.097 342.731 107.184V94.5818H341.959C341.142 96.2198 339.961 97.8578 338.417 99.5865C336.873 101.315 334.829 102.725 332.331 103.863C329.788 105 326.655 105.591 322.84 105.591C317.754 105.591 313.122 104.363 308.944 101.952C304.812 99.5409 301.496 95.9012 299.089 91.1245C296.637 86.3021 295.411 80.2971 295.411 73.0178C295.411 65.739 296.637 59.506 299.089 54.4563C301.541 49.4065 304.812 45.585 308.989 42.9467C313.167 40.3079 317.799 39.034 322.885 39.034C326.791 39.034 330.015 39.6707 332.513 40.9901C335.056 42.3095 337.054 43.9014 338.553 45.7218C340.052 47.5411 341.187 49.2703 341.959 50.9078H342.822V39.8986H358.262V107.593C358.262 113.28 356.9 118.011 354.175 121.742C351.45 125.472 347.772 128.247 343.049 130.113C338.326 131.978 332.967 132.888 327.018 132.888ZM327.154 93.2629C330.47 93.2629 333.285 92.4439 335.647 90.8514C337.963 89.214 339.779 86.8937 340.96 83.8907C342.186 80.8426 342.777 77.2035 342.777 72.9722C342.777 68.7414 342.186 65.1018 340.96 61.9631C339.779 58.8238 338.008 56.3673 335.692 54.593C333.376 52.8638 330.515 51.9542 327.154 51.9542C323.794 51.9542 320.751 52.8638 318.39 54.6842C316.074 56.5035 314.302 59.0056 313.122 62.1449C311.941 65.3292 311.351 68.9233 311.351 72.9271C311.351 76.9305 311.941 80.5701 313.167 83.6182C314.348 86.6663 316.119 89.0316 318.48 90.7152C320.797 92.3983 323.703 93.2629 327.154 93.2629ZM405.719 78.5229V39.9437H421.386V106.547H406.173V94.7185H405.492C403.993 98.4489 401.541 101.497 398.089 103.863C394.683 106.229 390.46 107.411 385.464 107.411C381.105 107.411 377.245 106.456 373.93 104.499C370.614 102.543 367.98 99.7227 366.118 95.9468C364.256 92.2165 363.303 87.6671 363.303 82.3444V39.9437H379.016V79.9329C379.016 84.1637 380.151 87.5304 382.467 89.9874C384.783 92.4895 387.826 93.7177 391.55 93.7177C393.866 93.7177 396.091 93.1717 398.271 92.0341C400.451 90.897 402.222 89.214 403.63 86.9844C405.038 84.7097 405.719 81.889 405.719 78.5229ZM442.185 17.6975V106.547H426.518V17.6969L442.185 17.6975ZM467.072 107.866C462.848 107.866 459.079 107.093 455.718 105.591C452.358 104.09 449.678 101.816 447.771 98.8586C445.818 95.9012 444.864 92.2165 444.864 87.849C444.864 84.073 445.546 80.9794 446.954 78.5229C448.361 76.0659 450.223 74.1098 452.63 72.6085C455.037 71.1523 457.716 70.0153 460.759 69.2419C463.756 68.4684 466.89 67.9224 470.114 67.5588C474.02 67.149 477.153 66.7854 479.606 66.4668C482.013 66.1482 483.784 65.6022 484.919 64.9199C486.008 64.1921 486.599 63.1001 486.599 61.5989V61.3259C486.599 58.0504 485.646 55.5483 483.693 53.7284C481.74 51.9542 478.97 51.044 475.337 51.044C471.477 51.044 468.479 51.863 466.209 53.5461C463.983 55.2297 462.485 57.1858 461.667 59.506L447.044 57.4132C448.18 53.3643 450.087 49.9981 452.766 47.2225C455.4 44.493 458.67 42.4463 462.485 41.0813C466.345 39.7163 470.568 39.034 475.201 39.034C478.425 39.034 481.603 39.3977 484.782 40.1711C487.961 40.9445 490.868 42.1728 493.502 43.902C496.136 45.6306 498.225 47.9509 499.859 50.9078C501.449 53.8647 502.266 57.5499 502.266 61.9631V106.547H487.189V97.4024H486.69C485.736 99.2679 484.42 100.997 482.694 102.589C480.968 104.181 478.834 105.501 476.245 106.456C473.566 107.411 470.568 107.866 467.072 107.866ZM471.159 96.356C474.292 96.356 477.017 95.7194 479.333 94.4911C481.649 93.2173 483.42 91.5793 484.691 89.4864C485.964 87.3941 486.553 85.1195 486.553 82.6624V74.792C486.054 75.2018 485.236 75.5654 484.056 75.9296C482.875 76.2933 481.604 76.5663 480.151 76.8393C478.697 77.1123 477.29 77.3397 475.882 77.5215C474.474 77.7039 473.248 77.8857 472.203 78.0225C469.887 78.3405 467.753 78.8409 465.936 79.5688C464.074 80.2971 462.621 81.298 461.577 82.5718C460.487 83.8456 459.987 85.5287 459.987 87.5304C459.987 90.4422 461.032 92.6257 463.166 94.0813C465.21 95.6282 467.889 96.356 471.159 96.356ZM507.035 106.547V39.9437H522.248V51.0446H522.929C524.156 47.1775 526.245 44.22 529.196 42.1272C532.148 40.0349 535.554 38.9884 539.369 38.9884C540.232 38.9884 541.231 39.034 542.275 39.0791C543.365 39.1703 544.274 39.2614 545 39.3977V53.8196C544.319 53.5917 543.275 53.3643 541.867 53.1824C540.496 53.0041 539.116 52.9131 537.734 52.91C534.873 52.91 532.33 53.5466 530.059 54.7749C527.789 56.0031 526.018 57.6862 524.701 59.8702C523.384 62.0537 522.748 64.5558 522.748 67.3764V106.547H507.035ZM123.25 21.7914L118.8 91.8067L76.2484 0L123.25 21.7914ZM93.7777 112.325L61.6255 130.704L29.4727 112.325L36.0122 96.4472H87.2383L93.7777 112.325ZM61.6255 34.8483L78.4733 75.884H44.7771L61.6255 34.8483ZM4.40495 91.8067L0 21.7914L47.0021 0L4.40495 91.8067Z" fill="url(#paint1_radial_223_62)"/>
</g>
<defs>
<linearGradient id="paint0_linear_223_62" x1="0" y1="106.755" x2="545" y2="106.755" gradientUnits="userSpaceOnUse">
<stop stop-color="#F0070C"/>
<stop offset="0.526" stop-color="#CC26D5"/>
<stop offset="1" stop-color="#7702FF"/>
</linearGradient>
<radialGradient id="paint1_radial_223_62" cx="0" cy="0" r="1" gradientUnits="userSpaceOnUse" gradientTransform="translate(169.549 -34.1953) rotate(118.078) scale(114.378 114.26)">
<stop stop-color="#FF41F8"/>
<stop offset="0.707" stop-color="#FF41F8" stop-opacity="0.5"/>
<stop offset="1" stop-color="#FF41F8" stop-opacity="0"/>
</radialGradient>
</defs>
</svg>
