<svg width="602" height="129" viewBox="0 0 602 129" fill="none" xmlns="http://www.w3.org/2000/svg">
<path d="M129 0H0V129H129V0Z" fill="#F7DF1E"/>
<path d="M86.6552 100.782C89.2536 105.024 92.6342 108.143 98.6133 108.143C103.636 108.143 106.845 105.633 106.845 102.164C106.845 98.0073 103.548 96.535 98.0194 94.1168L94.989 92.8166C86.2415 89.0899 80.4304 84.4213 80.4304 74.5518C80.4304 65.4604 87.3575 58.5394 98.1833 58.5394C105.89 58.5394 111.431 61.2218 115.424 68.2451L105.985 74.3061C103.906 70.5794 101.664 69.1113 98.1833 69.1113C94.6327 69.1113 92.3823 71.3637 92.3823 74.3061C92.3823 77.9427 94.6347 79.4149 99.8357 81.6673L102.866 82.9655C113.166 87.3822 118.981 91.8849 118.981 102.008C118.981 112.922 110.408 118.901 98.8938 118.901C87.636 118.901 80.3628 113.536 76.8041 106.505L86.6552 100.782ZM43.8333 101.832C45.7376 105.211 47.4699 108.067 51.6347 108.067C55.6173 108.067 58.1298 106.509 58.1298 100.45V59.2315H70.2517V100.614C70.2517 113.166 62.8925 118.879 52.1507 118.879C42.445 118.879 36.8243 113.856 33.9658 107.806L43.8333 101.832Z" fill="#414141"/>
<path d="M198.557 86.3691V40.5938H209.787V86.3691C209.787 90.7116 208.859 94.4102 207.002 97.4648C205.145 100.52 202.615 102.855 199.41 104.473C196.206 106.09 192.567 106.898 188.494 106.898C184.331 106.898 180.633 106.195 177.398 104.787C174.194 103.38 171.678 101.223 169.852 98.3184C168.025 95.4134 167.111 91.7298 167.111 87.2676H178.432C178.432 89.8431 178.836 91.9245 179.645 93.5117C180.483 95.069 181.651 96.207 183.148 96.9258C184.676 97.6146 186.458 97.959 188.494 97.959C190.441 97.959 192.163 97.5247 193.66 96.6562C195.188 95.7578 196.385 94.4551 197.254 92.748C198.122 91.0111 198.557 88.8848 198.557 86.3691ZM249.094 96.252V73.0723C249.094 71.3353 248.779 69.8379 248.15 68.5801C247.521 67.3223 246.563 66.349 245.275 65.6602C244.018 64.9714 242.43 64.627 240.514 64.627C238.747 64.627 237.219 64.9264 235.932 65.5254C234.644 66.1243 233.641 66.9329 232.922 67.9512C232.203 68.9694 231.844 70.1224 231.844 71.4102H221.062C221.062 69.4935 221.527 67.6367 222.455 65.8398C223.383 64.043 224.731 62.4408 226.498 61.0332C228.265 59.6257 230.376 58.5176 232.832 57.709C235.288 56.9004 238.043 56.4961 241.098 56.4961C244.751 56.4961 247.986 57.11 250.801 58.3379C253.646 59.5658 255.877 61.4225 257.494 63.9082C259.141 66.3639 259.965 69.4486 259.965 73.1621V94.7695C259.965 96.9857 260.115 98.9772 260.414 100.744C260.743 102.481 261.208 103.993 261.807 105.281V106H250.711C250.202 104.832 249.798 103.35 249.498 101.553C249.229 99.7259 249.094 97.959 249.094 96.252ZM250.666 76.4414L250.756 83.1348H242.984C240.978 83.1348 239.211 83.3294 237.684 83.7188C236.156 84.0781 234.883 84.6172 233.865 85.3359C232.847 86.0547 232.083 86.9232 231.574 87.9414C231.065 88.9596 230.811 90.1126 230.811 91.4004C230.811 92.6882 231.11 93.8711 231.709 94.9492C232.308 95.9974 233.176 96.821 234.314 97.4199C235.482 98.0189 236.89 98.3184 238.537 98.3184C240.753 98.3184 242.685 97.8691 244.332 96.9707C246.009 96.0423 247.327 94.9193 248.285 93.6016C249.243 92.2539 249.753 90.9811 249.812 89.7832L253.316 94.5898C252.957 95.8177 252.343 97.1354 251.475 98.543C250.606 99.9505 249.468 101.298 248.061 102.586C246.683 103.844 245.021 104.877 243.074 105.686C241.158 106.494 238.941 106.898 236.426 106.898C233.251 106.898 230.421 106.27 227.936 105.012C225.45 103.724 223.503 102.002 222.096 99.8457C220.688 97.6595 219.984 95.1888 219.984 92.4336C219.984 89.8581 220.464 87.582 221.422 85.6055C222.41 83.599 223.848 81.9219 225.734 80.5742C227.651 79.2266 229.987 78.2083 232.742 77.5195C235.497 76.8008 238.642 76.4414 242.176 76.4414H250.666ZM286.379 97.4199L298.283 57.3945H309.514L292.623 106H285.615L286.379 97.4199ZM277.26 57.3945L289.389 97.5996L289.973 106H282.965L265.984 57.3945H277.26ZM342.891 96.252V73.0723C342.891 71.3353 342.576 69.8379 341.947 68.5801C341.318 67.3223 340.36 66.349 339.072 65.6602C337.814 64.9714 336.227 64.627 334.311 64.627C332.544 64.627 331.016 64.9264 329.729 65.5254C328.441 66.1243 327.438 66.9329 326.719 67.9512C326 68.9694 325.641 70.1224 325.641 71.4102H314.859C314.859 69.4935 315.324 67.6367 316.252 65.8398C317.18 64.043 318.528 62.4408 320.295 61.0332C322.062 59.6257 324.173 58.5176 326.629 57.709C329.085 56.9004 331.84 56.4961 334.895 56.4961C338.548 56.4961 341.783 57.11 344.598 58.3379C347.443 59.5658 349.674 61.4225 351.291 63.9082C352.938 66.3639 353.762 69.4486 353.762 73.1621V94.7695C353.762 96.9857 353.911 98.9772 354.211 100.744C354.54 102.481 355.005 103.993 355.604 105.281V106H344.508C343.999 104.832 343.594 103.35 343.295 101.553C343.025 99.7259 342.891 97.959 342.891 96.252ZM344.463 76.4414L344.553 83.1348H336.781C334.775 83.1348 333.008 83.3294 331.48 83.7188C329.953 84.0781 328.68 84.6172 327.662 85.3359C326.644 86.0547 325.88 86.9232 325.371 87.9414C324.862 88.9596 324.607 90.1126 324.607 91.4004C324.607 92.6882 324.907 93.8711 325.506 94.9492C326.105 95.9974 326.973 96.821 328.111 97.4199C329.279 98.0189 330.687 98.3184 332.334 98.3184C334.55 98.3184 336.482 97.8691 338.129 96.9707C339.806 96.0423 341.124 94.9193 342.082 93.6016C343.04 92.2539 343.549 90.9811 343.609 89.7832L347.113 94.5898C346.754 95.8177 346.14 97.1354 345.271 98.543C344.403 99.9505 343.265 101.298 341.857 102.586C340.48 103.844 338.818 104.877 336.871 105.686C334.954 106.494 332.738 106.898 330.223 106.898C327.048 106.898 324.218 106.27 321.732 105.012C319.247 103.724 317.3 102.002 315.893 99.8457C314.485 97.6595 313.781 95.1888 313.781 92.4336C313.781 89.8581 314.26 87.582 315.219 85.6055C316.207 83.599 317.645 81.9219 319.531 80.5742C321.448 79.2266 323.784 78.2083 326.539 77.5195C329.294 76.8008 332.439 76.4414 335.973 76.4414H344.463ZM400.57 89.1543C400.57 87.8066 400.361 86.6087 399.941 85.5605C399.552 84.5124 398.848 83.554 397.83 82.6855C396.812 81.8171 395.374 80.9785 393.518 80.1699C391.691 79.3314 389.355 78.4779 386.51 77.6094C383.395 76.651 380.52 75.5879 377.885 74.4199C375.279 73.222 373.003 71.8444 371.057 70.2871C369.11 68.6999 367.598 66.888 366.52 64.8516C365.441 62.7852 364.902 60.4043 364.902 57.709C364.902 55.0436 365.456 52.6178 366.564 50.4316C367.702 48.2454 369.305 46.3587 371.371 44.7715C373.467 43.1543 375.938 41.9115 378.783 41.043C381.628 40.1445 384.773 39.6953 388.217 39.6953C393.068 39.6953 397.246 40.5938 400.75 42.3906C404.284 44.1875 406.994 46.5983 408.881 49.623C410.798 52.6478 411.756 55.987 411.756 59.6406H400.57C400.57 57.4844 400.106 55.5827 399.178 53.9355C398.279 52.2585 396.902 50.9408 395.045 49.9824C393.218 49.0241 390.897 48.5449 388.082 48.5449C385.417 48.5449 383.201 48.9492 381.434 49.7578C379.667 50.5664 378.349 51.6595 377.48 53.0371C376.612 54.4147 376.178 55.972 376.178 57.709C376.178 58.9368 376.462 60.0599 377.031 61.0781C377.6 62.0664 378.469 62.9948 379.637 63.8633C380.805 64.7018 382.272 65.4954 384.039 66.2441C385.806 66.9928 387.887 67.7116 390.283 68.4004C393.907 69.4785 397.066 70.6764 399.762 71.9941C402.457 73.2819 404.703 74.7493 406.5 76.3965C408.297 78.0436 409.645 79.9154 410.543 82.0117C411.441 84.0781 411.891 86.429 411.891 89.0645C411.891 91.8197 411.337 94.3053 410.229 96.5215C409.12 98.7077 407.533 100.579 405.467 102.137C403.43 103.664 400.975 104.847 398.1 105.686C395.255 106.494 392.08 106.898 388.576 106.898C385.432 106.898 382.332 106.479 379.277 105.641C376.253 104.802 373.497 103.529 371.012 101.822C368.526 100.085 366.549 97.929 365.082 95.3535C363.615 92.748 362.881 89.7083 362.881 86.2344H374.156C374.156 88.3607 374.516 90.1725 375.234 91.6699C375.983 93.1673 377.016 94.3952 378.334 95.3535C379.652 96.2819 381.179 96.9707 382.916 97.4199C384.683 97.8691 386.57 98.0938 388.576 98.0938C391.212 98.0938 393.413 97.7194 395.18 96.9707C396.977 96.222 398.324 95.1738 399.223 93.8262C400.121 92.4785 400.57 90.9212 400.57 89.1543ZM440.641 98.2734C442.408 98.2734 443.995 97.929 445.402 97.2402C446.84 96.5215 447.993 95.5332 448.861 94.2754C449.76 93.0176 450.254 91.5651 450.344 89.918H460.541C460.481 93.0625 459.553 95.9225 457.756 98.498C455.959 101.074 453.578 103.125 450.613 104.652C447.648 106.15 444.369 106.898 440.775 106.898C437.062 106.898 433.827 106.27 431.072 105.012C428.317 103.724 426.026 101.957 424.199 99.7109C422.372 97.4648 420.995 94.8743 420.066 91.9395C419.168 89.0046 418.719 85.86 418.719 82.5059V80.9336C418.719 77.5794 419.168 74.4349 420.066 71.5C420.995 68.5352 422.372 65.9297 424.199 63.6836C426.026 61.4375 428.317 59.6855 431.072 58.4277C433.827 57.14 437.047 56.4961 440.73 56.4961C444.624 56.4961 448.038 57.2747 450.973 58.832C453.908 60.3594 456.214 62.5007 457.891 65.2559C459.598 67.9811 460.481 71.1556 460.541 74.7793H450.344C450.254 72.9824 449.805 71.3652 448.996 69.9277C448.217 68.4603 447.109 67.2923 445.672 66.4238C444.264 65.5553 442.572 65.1211 440.596 65.1211C438.41 65.1211 436.598 65.5703 435.16 66.4688C433.723 67.3372 432.6 68.5352 431.791 70.0625C430.982 71.5599 430.398 73.252 430.039 75.1387C429.71 76.9954 429.545 78.9271 429.545 80.9336V82.5059C429.545 84.5124 429.71 86.459 430.039 88.3457C430.368 90.2324 430.938 91.9245 431.746 93.4219C432.585 94.8893 433.723 96.0723 435.16 96.9707C436.598 97.8392 438.424 98.2734 440.641 98.2734ZM479.723 66.6484V106H468.896V57.3945H479.229L479.723 66.6484ZM494.592 57.0801L494.502 67.1426C493.843 67.0228 493.124 66.9329 492.346 66.873C491.597 66.8132 490.848 66.7832 490.1 66.7832C488.243 66.7832 486.611 67.0527 485.203 67.5918C483.796 68.1009 482.613 68.8496 481.654 69.8379C480.726 70.7962 480.007 71.9642 479.498 73.3418C478.989 74.7194 478.689 76.2617 478.6 77.9688L476.129 78.1484C476.129 75.0938 476.428 72.2637 477.027 69.6582C477.626 67.0527 478.525 64.7617 479.723 62.7852C480.951 60.8086 482.478 59.2663 484.305 58.1582C486.161 57.0501 488.303 56.4961 490.729 56.4961C491.387 56.4961 492.091 56.556 492.84 56.6758C493.618 56.7956 494.202 56.9303 494.592 57.0801ZM512.965 57.3945V106H502.094V57.3945H512.965ZM501.375 44.6367C501.375 42.9896 501.914 41.627 502.992 40.5488C504.1 39.4408 505.628 38.8867 507.574 38.8867C509.491 38.8867 511.003 39.4408 512.111 40.5488C513.219 41.627 513.773 42.9896 513.773 44.6367C513.773 46.2539 513.219 47.6016 512.111 48.6797C511.003 49.7578 509.491 50.2969 507.574 50.2969C505.628 50.2969 504.1 49.7578 502.992 48.6797C501.914 47.6016 501.375 46.2539 501.375 44.6367ZM535.695 66.7383V124.688H524.869V57.3945H534.842L535.695 66.7383ZM567.365 81.248V82.1914C567.365 85.7253 566.946 89.0046 566.107 92.0293C565.299 95.0241 564.086 97.6445 562.469 99.8906C560.882 102.107 558.92 103.829 556.584 105.057C554.248 106.285 551.553 106.898 548.498 106.898C545.473 106.898 542.823 106.344 540.547 105.236C538.301 104.098 536.399 102.496 534.842 100.43C533.285 98.3633 532.027 95.9375 531.068 93.1523C530.14 90.3372 529.481 87.2526 529.092 83.8984V80.2598C529.481 76.696 530.14 73.4616 531.068 70.5566C532.027 67.6517 533.285 65.151 534.842 63.0547C536.399 60.9583 538.301 59.3411 540.547 58.2031C542.793 57.0651 545.413 56.4961 548.408 56.4961C551.463 56.4961 554.173 57.0951 556.539 58.293C558.905 59.4609 560.896 61.138 562.514 63.3242C564.131 65.4805 565.344 68.0859 566.152 71.1406C566.961 74.1654 567.365 77.5345 567.365 81.248ZM556.539 82.1914V81.248C556.539 79.002 556.329 76.9206 555.91 75.0039C555.491 73.0573 554.832 71.3503 553.934 69.8828C553.035 68.4154 551.882 67.2773 550.475 66.4688C549.097 65.6302 547.435 65.2109 545.488 65.2109C543.572 65.2109 541.924 65.5404 540.547 66.1992C539.169 66.8281 538.016 67.7116 537.088 68.8496C536.16 69.9876 535.441 71.3203 534.932 72.8477C534.423 74.3451 534.063 75.9772 533.854 77.7441V86.459C534.213 88.6152 534.827 90.5918 535.695 92.3887C536.564 94.1855 537.792 95.623 539.379 96.7012C540.996 97.7493 543.062 98.2734 545.578 98.2734C547.525 98.2734 549.187 97.8542 550.564 97.0156C551.942 96.1771 553.065 95.0241 553.934 93.5566C554.832 92.0592 555.491 90.3372 555.91 88.3906C556.329 86.444 556.539 84.3776 556.539 82.1914ZM598.855 57.3945V65.3008H571.453V57.3945H598.855ZM579.359 45.4902H590.186V92.5684C590.186 94.0658 590.395 95.2188 590.814 96.0273C591.264 96.806 591.878 97.3301 592.656 97.5996C593.435 97.8691 594.348 98.0039 595.396 98.0039C596.145 98.0039 596.864 97.959 597.553 97.8691C598.242 97.7793 598.796 97.6895 599.215 97.5996L599.26 105.865C598.361 106.135 597.313 106.374 596.115 106.584C594.947 106.794 593.6 106.898 592.072 106.898C589.587 106.898 587.385 106.464 585.469 105.596C583.552 104.697 582.055 103.245 580.977 101.238C579.898 99.2318 579.359 96.5664 579.359 93.2422V45.4902Z" fill="#414141"/>
</svg>
