<svg width="428" height="163" viewBox="0 0 428 163" fill="none" xmlns="http://www.w3.org/2000/svg">
<path d="M80.7577 95.4308C88.6579 95.4308 95.0623 89.0265 95.0623 81.1263C95.0623 73.2261 88.6579 66.8217 80.7577 66.8217C72.8575 66.8217 66.4531 73.2261 66.4531 81.1263C66.4531 89.0265 72.8575 95.4308 80.7577 95.4308Z" fill="#61DAFB"/>
<path d="M80.7562 110.433C123.147 110.433 157.512 97.312 157.512 81.1262C157.512 64.9405 123.147 51.8193 80.7562 51.8193C38.3649 51.8193 4 64.9405 4 81.1262C4 97.312 38.3649 110.433 80.7562 110.433Z" stroke="#61DAFB" stroke-width="8"/>
<path d="M55.3749 95.7797C76.5705 132.492 105.116 155.692 119.133 147.599C133.151 139.506 127.332 103.185 106.136 66.4728C84.9403 29.7609 56.3946 6.56058 42.3773 14.6535C28.36 22.7463 34.1792 59.0678 55.3749 95.7797Z" stroke="#61DAFB" stroke-width="8"/>
<path d="M55.375 66.4728C34.1794 103.185 28.3601 139.506 42.3774 147.599C56.3947 155.692 84.9404 132.492 106.136 95.7797C127.332 59.0678 133.151 22.7463 119.134 14.6534C105.116 6.56055 76.5706 29.7609 55.375 66.4728Z" stroke="#61DAFB" stroke-width="8"/>
<path d="M201.592 46.5938H223.244C228.156 46.5938 232.303 47.3424 235.688 48.8398C239.102 50.3372 241.692 52.5534 243.459 55.4883C245.256 58.3932 246.154 61.972 246.154 66.2246C246.154 69.2194 245.54 71.9596 244.312 74.4453C243.115 76.901 241.378 78.9974 239.102 80.7344C236.855 82.4414 234.16 83.7142 231.016 84.5527L228.59 85.4961H208.24L208.15 78.4434H223.514C226.628 78.4434 229.219 77.9043 231.285 76.8262C233.352 75.7181 234.909 74.2357 235.957 72.3789C237.005 70.5221 237.529 68.4707 237.529 66.2246C237.529 63.709 237.035 61.5078 236.047 59.6211C235.059 57.7344 233.501 56.2819 231.375 55.2637C229.279 54.2155 226.568 53.6914 223.244 53.6914H210.262V112H201.592V46.5938ZM239.82 112L223.918 82.3516L232.947 82.3066L249.074 111.461V112H239.82ZM277.195 112.898C273.811 112.898 270.742 112.329 267.986 111.191C265.261 110.023 262.91 108.391 260.934 106.295C258.987 104.199 257.49 101.713 256.441 98.8379C255.393 95.9629 254.869 92.8184 254.869 89.4043V87.5176C254.869 83.5645 255.453 80.0456 256.621 76.9609C257.789 73.8464 259.376 71.2109 261.383 69.0547C263.389 66.8984 265.665 65.2663 268.211 64.1582C270.757 63.0501 273.392 62.4961 276.117 62.4961C279.591 62.4961 282.586 63.0951 285.102 64.293C287.647 65.4909 289.729 67.168 291.346 69.3242C292.963 71.4505 294.161 73.9661 294.939 76.8711C295.718 79.7461 296.107 82.8906 296.107 86.3047V90.0332H259.811V83.25H287.797V82.6211C287.677 80.4648 287.228 78.3685 286.449 76.332C285.701 74.2956 284.503 72.6185 282.855 71.3008C281.208 69.9831 278.962 69.3242 276.117 69.3242C274.23 69.3242 272.493 69.7285 270.906 70.5371C269.319 71.3158 267.956 72.4837 266.818 74.041C265.68 75.5983 264.797 77.5 264.168 79.7461C263.539 81.9922 263.225 84.5827 263.225 87.5176V89.4043C263.225 91.7103 263.539 93.8815 264.168 95.918C264.827 97.9245 265.77 99.6914 266.998 101.219C268.256 102.746 269.768 103.944 271.535 104.812C273.332 105.681 275.368 106.115 277.645 106.115C280.579 106.115 283.065 105.516 285.102 104.318C287.138 103.12 288.92 101.518 290.447 99.5117L295.479 103.51C294.43 105.097 293.098 106.609 291.48 108.047C289.863 109.484 287.872 110.652 285.506 111.551C283.17 112.449 280.4 112.898 277.195 112.898ZM334.471 103.689V78.668C334.471 76.7513 334.081 75.0892 333.303 73.6816C332.554 72.2441 331.416 71.1361 329.889 70.3574C328.361 69.5788 326.475 69.1895 324.229 69.1895C322.132 69.1895 320.29 69.5488 318.703 70.2676C317.146 70.9863 315.918 71.9297 315.02 73.0977C314.151 74.2656 313.717 75.5234 313.717 76.8711H305.406C305.406 75.1341 305.855 73.4121 306.754 71.7051C307.652 69.998 308.94 68.4557 310.617 67.0781C312.324 65.6706 314.361 64.5625 316.727 63.7539C319.122 62.9154 321.788 62.4961 324.723 62.4961C328.257 62.4961 331.371 63.0951 334.066 64.293C336.792 65.4909 338.918 67.3027 340.445 69.7285C342.003 72.1243 342.781 75.1341 342.781 78.7578V101.398C342.781 103.016 342.916 104.738 343.186 106.564C343.485 108.391 343.919 109.964 344.488 111.281V112H335.818C335.399 111.042 335.07 109.769 334.83 108.182C334.59 106.564 334.471 105.067 334.471 103.689ZM335.908 82.5312L335.998 88.3711H327.598C325.232 88.3711 323.12 88.5658 321.264 88.9551C319.407 89.3145 317.85 89.8685 316.592 90.6172C315.334 91.3659 314.376 92.3092 313.717 93.4473C313.058 94.5553 312.729 95.8581 312.729 97.3555C312.729 98.8828 313.073 100.275 313.762 101.533C314.451 102.791 315.484 103.794 316.861 104.543C318.269 105.262 319.991 105.621 322.027 105.621C324.573 105.621 326.819 105.082 328.766 104.004C330.712 102.926 332.255 101.608 333.393 100.051C334.561 98.4935 335.189 96.9811 335.279 95.5137L338.828 99.5117C338.618 100.77 338.049 102.162 337.121 103.689C336.193 105.217 334.95 106.684 333.393 108.092C331.865 109.469 330.038 110.622 327.912 111.551C325.816 112.449 323.45 112.898 320.814 112.898C317.52 112.898 314.63 112.255 312.145 110.967C309.689 109.679 307.772 107.957 306.395 105.801C305.047 103.615 304.373 101.174 304.373 98.4785C304.373 95.873 304.882 93.582 305.9 91.6055C306.919 89.599 308.386 87.9368 310.303 86.6191C312.219 85.2715 314.525 84.2533 317.221 83.5645C319.916 82.8757 322.926 82.5312 326.25 82.5312H335.908ZM375.305 106.07C377.281 106.07 379.108 105.666 380.785 104.857C382.462 104.049 383.84 102.941 384.918 101.533C385.996 100.096 386.61 98.4635 386.76 96.6367H394.666C394.516 99.5117 393.543 102.192 391.746 104.678C389.979 107.133 387.658 109.125 384.783 110.652C381.908 112.15 378.749 112.898 375.305 112.898C371.651 112.898 368.462 112.255 365.736 110.967C363.041 109.679 360.795 107.912 358.998 105.666C357.231 103.42 355.898 100.844 355 97.9395C354.132 95.0046 353.697 91.9049 353.697 88.6406V86.7539C353.697 83.4896 354.132 80.4049 355 77.5C355.898 74.5651 357.231 71.9746 358.998 69.7285C360.795 67.4824 363.041 65.7155 365.736 64.4277C368.462 63.14 371.651 62.4961 375.305 62.4961C379.108 62.4961 382.432 63.2747 385.277 64.832C388.122 66.3594 390.354 68.4557 391.971 71.1211C393.618 73.7565 394.516 76.7513 394.666 80.1055H386.76C386.61 78.099 386.041 76.2871 385.053 74.6699C384.094 73.0527 382.777 71.765 381.1 70.8066C379.452 69.8184 377.521 69.3242 375.305 69.3242C372.759 69.3242 370.618 69.8333 368.881 70.8516C367.174 71.8398 365.811 73.1875 364.793 74.8945C363.805 76.5716 363.086 78.4434 362.637 80.5098C362.217 82.5462 362.008 84.6276 362.008 86.7539V88.6406C362.008 90.7669 362.217 92.8633 362.637 94.9297C363.056 96.9961 363.76 98.8678 364.748 100.545C365.766 102.222 367.129 103.57 368.836 104.588C370.573 105.576 372.729 106.07 375.305 106.07ZM424.359 63.3945V69.7734H398.08V63.3945H424.359ZM406.975 51.5801H415.285V99.9609C415.285 101.608 415.54 102.851 416.049 103.689C416.558 104.528 417.217 105.082 418.025 105.352C418.834 105.621 419.702 105.756 420.631 105.756C421.32 105.756 422.038 105.696 422.787 105.576C423.566 105.426 424.15 105.307 424.539 105.217L424.584 112C423.925 112.21 423.057 112.404 421.979 112.584C420.93 112.794 419.658 112.898 418.16 112.898C416.124 112.898 414.252 112.494 412.545 111.686C410.838 110.877 409.475 109.529 408.457 107.643C407.469 105.726 406.975 103.15 406.975 99.916V51.5801Z" fill="#61DAFB"/>
</svg>
