<svg width="407" height="127" viewBox="0 0 407 127" fill="none" xmlns="http://www.w3.org/2000/svg">
<path d="M126.382 35.0078C126.375 33.7366 126.361 32.4661 126.325 31.1935C126.251 28.4253 126.088 25.6319 125.596 22.8932C125.096 20.112 124.28 17.5259 122.994 14.9994C121.731 12.5182 120.081 10.2477 118.112 8.27881C116.143 6.30987 113.873 4.65952 111.391 3.39626C108.866 2.11152 106.28 1.2956 103.501 0.796342C100.761 0.302831 97.9676 0.140243 95.1972 0.0653332C93.9252 0.0308577 92.6545 0.0163865 91.383 0.00851247C89.8737 0 88.3634 0 86.8545 0H53.3971H39.5365C38.0262 0 36.5175 0 35.0087 0.00872528C33.7367 0.0165993 32.4645 0.0310705 31.1945 0.065546C30.502 0.0842735 29.808 0.108534 29.1136 0.141945C27.0306 0.242393 24.9444 0.426475 22.8903 0.796555C20.8063 1.1711 18.8301 1.72356 16.9076 2.51842C16.2668 2.78315 15.6317 3.07513 15.0005 3.39626C13.1389 4.3437 11.3959 5.50885 9.81071 6.86276C9.28229 7.31413 8.77133 7.78636 8.27931 8.27859C6.30995 10.2475 4.65938 12.518 3.39677 14.9992C2.11054 17.5257 1.29547 20.1118 0.795785 22.893C0.304189 25.6317 0.14075 28.4251 0.0662656 31.1933C0.0313644 32.4659 0.0166804 33.7364 0.00838077 35.0075C-0.00119577 36.5172 8.1105e-05 38.0271 8.1105e-05 39.5364V60.1406V86.8538C8.1105e-05 88.3646 -0.00140858 89.873 0.00838077 91.3837C0.0166804 92.6549 0.0313644 93.9253 0.0662656 95.1958C0.14075 97.9656 0.303976 100.76 0.795785 103.497C1.29547 106.277 2.11054 108.866 3.39677 111.392C4.65938 113.873 6.30995 116.143 8.27931 118.111C10.2472 120.081 12.5183 121.731 15.0008 122.995C17.5253 124.28 20.1117 125.095 22.891 125.595C25.6294 126.087 28.4249 126.251 31.1947 126.325C32.4647 126.359 33.7369 126.374 35.0089 126.381C36.5177 126.392 38.0264 126.391 39.5367 126.391H86.8545C88.3634 126.391 89.8737 126.392 91.3828 126.381C92.6543 126.374 93.925 126.359 95.197 126.325C97.9674 126.251 100.761 126.087 103.501 125.595C106.28 125.095 108.866 124.28 111.39 122.995C113.873 121.732 116.143 120.081 118.112 118.111C120.081 116.143 121.731 113.873 122.994 111.392C124.28 108.866 125.096 106.278 125.595 103.497C126.087 100.76 126.251 97.9656 126.325 95.1958C126.36 93.9253 126.374 92.6551 126.382 91.3837C126.392 89.873 126.391 88.3646 126.391 86.8538V39.5364C126.391 38.0271 126.392 36.5172 126.382 35.0078Z" fill="#F05138"/>
<path d="M100.15 78.0182C100.147 78.0144 100.145 78.0116 100.141 78.008C100.281 77.5322 100.425 77.0593 100.548 76.5715C105.794 55.6715 92.9906 30.9619 71.3253 17.9517C80.8195 30.8223 85.0174 46.4116 81.2877 60.0448C80.9551 61.2608 80.5552 62.4278 80.1132 63.5621C79.6335 63.247 79.0291 62.8892 78.2175 62.4417C78.2175 62.4417 56.6662 49.1352 33.3082 25.5993C32.6953 24.9815 45.7637 44.2778 60.5947 59.9469C53.6073 56.0254 34.1341 41.857 21.8064 30.574C23.3209 33.0998 25.1224 35.532 27.1026 37.8736C37.3974 50.9294 50.823 67.0382 66.9076 79.4079C55.6064 86.3238 39.6377 86.8616 23.7383 79.4151C19.8057 77.5722 16.1088 75.3485 12.6865 72.822C19.4167 83.5871 29.7821 92.875 42.3978 98.2973C57.4426 104.763 72.4034 104.324 83.5463 98.4033L83.5375 98.416C83.5884 98.3839 83.6531 98.3488 83.7059 98.3162C84.1634 98.0702 84.6176 97.8197 85.0617 97.5552C90.4154 94.7763 100.99 91.957 106.666 103.001C108.056 105.703 111.01 91.3803 100.15 78.0182Z" fill="white"/>
<path d="M174.358 82.0225C175.346 90.791 183.709 96.5399 195.323 96.5399C206.359 96.5399 214.315 90.791 214.315 82.8363C214.315 75.9831 209.495 71.7999 198.401 69.0135L187.658 66.2842C172.21 62.4508 165.24 55.481 165.24 43.9832C165.24 29.8132 177.61 19.9974 195.208 19.9974C212.281 19.9974 224.419 29.8702 224.826 44.0999H213.502C212.63 35.3884 205.545 30.0439 194.918 30.0439C184.405 30.0439 177.088 35.4454 177.088 43.3431C177.088 49.4989 181.619 53.1588 192.769 56.0048L201.712 58.3272C219.019 62.5677 226.104 69.304 226.104 81.4422C226.104 96.8902 213.849 106.589 194.336 106.589C176.217 106.589 163.847 96.9472 162.917 82.0229L174.358 82.0225Z" fill="#F05138"/>
<path d="M298.041 105.194H286.658L273.358 58.8504H273.126L259.885 105.194H248.503L231.661 44.5042H242.695L254.426 93.2302H254.659L267.9 44.5042H278.585L291.943 93.2302H292.176L303.907 44.5042H314.824L298.041 105.194Z" fill="#F05138"/>
<path d="M322.174 28.1852C322.174 24.528 325.195 21.5654 328.853 21.5654C332.57 21.5654 335.59 24.528 335.59 28.1852C335.59 31.8449 332.57 34.8647 328.853 34.8647C325.195 34.8647 322.174 31.8451 322.174 28.1852ZM323.336 44.5042H334.428V105.195H323.336V44.5042Z" fill="#F05138"/>
<path d="M406.866 53.4489V44.504H395.135V29.9866H384.1V44.504H375.098H362.897V39.162C362.954 33.7604 365.045 31.495 370.04 31.495C371.665 31.495 373.292 31.6713 374.628 31.9019V23.1905C372.653 22.9002 370.853 22.7266 368.762 22.7266C356.915 22.7266 351.92 27.6642 351.92 38.9884V44.504H343.442V53.4489H351.92V105.194H362.954V53.4489H375.098H384.1V89.2824C384.1 101.014 388.573 105.542 400.187 105.542C402.684 105.542 405.53 105.368 406.808 105.078V96.019C406.053 96.1356 403.846 96.3092 402.626 96.3092C397.458 96.3092 395.136 93.8702 395.136 88.4116V53.4489H406.866Z" fill="#F05138"/>
</svg>
