<svg width="535" height="128" viewBox="0 0 535 128" fill="none" xmlns="http://www.w3.org/2000/svg">
<path d="M122 0H6C2.68629 0 0 2.68629 0 6V122C0 125.314 2.68629 128 6 128H122C125.314 128 128 125.314 128 122V6C128 2.68629 125.314 0 122 0Z" fill="#3178C6"/>
<path fill-rule="evenodd" clip-rule="evenodd" d="M74.2622 99.468V113.494C76.5346 114.662 79.222 115.539 82.3247 116.123C85.4274 116.708 88.6975 117 92.1352 117C95.4855 117 98.6682 116.679 101.683 116.036C104.699 115.393 107.342 114.334 109.615 112.858C111.887 111.382 113.686 109.454 115.012 107.072C116.337 104.691 117 101.747 117 98.2407C117 95.6986 116.621 93.4706 115.864 91.5566C115.106 89.6427 114.014 87.9407 112.586 86.4504C111.159 84.9602 109.447 83.6234 107.452 82.44C105.456 81.2566 103.206 80.1389 100.7 79.087C98.8648 78.3273 97.2188 77.5895 95.7622 76.8736C94.3055 76.1577 93.0674 75.4272 92.0478 74.6821C91.0281 73.9369 90.2415 73.148 89.688 72.3152C89.1345 71.4825 88.8577 70.5401 88.8577 69.4882C88.8577 68.5239 89.1053 67.6546 89.6006 66.8803C90.0959 66.106 90.7951 65.4412 91.6982 64.886C92.6013 64.3309 93.7083 63.8999 95.0193 63.5931C96.3303 63.2862 97.7869 63.1328 99.3892 63.1328C100.555 63.1328 101.785 63.2205 103.082 63.3958C104.378 63.5711 105.682 63.8414 106.993 64.2067C108.304 64.5719 109.578 65.0321 110.817 65.5873C112.055 66.1425 113.198 66.7853 114.247 67.5158V54.4107C112.12 53.5925 109.797 52.9862 107.277 52.5917C104.757 52.1972 101.866 52 98.6026 52C95.2815 52 92.1352 52.3579 89.1636 53.0738C86.1921 53.7897 83.5774 54.9074 81.3196 56.4268C79.0618 57.9463 77.2774 59.8821 75.9665 62.2343C74.6555 64.5865 74 67.3989 74 70.6716C74 74.8501 75.2017 78.4149 77.6052 81.3661C80.0087 84.3174 83.6575 86.8157 88.5518 88.8611C90.4746 89.65 92.2663 90.4244 93.9268 91.1841C95.5874 91.9438 97.0222 92.7327 98.2312 93.5509C99.4402 94.3691 100.394 95.2603 101.093 96.2245C101.793 97.1888 102.142 98.2845 102.142 99.5118C102.142 100.418 101.924 101.258 101.487 102.032C101.05 102.806 100.387 103.478 99.4985 104.048C98.6099 104.618 97.5029 105.064 96.1773 105.385C94.8518 105.706 93.3005 105.867 91.5234 105.867C88.4935 105.867 85.4929 105.334 82.5213 104.267C79.5498 103.201 76.7968 101.601 74.2622 99.468ZM50.7026 64.5544H69V53H18V64.5544H36.2079V116H50.7026V64.5544Z" fill="white"/>
<path fill-rule="evenodd" clip-rule="evenodd" d="M350.835 94.335V89.3284C355.402 92.223 360.028 93.67 364.714 93.67C369.696 93.67 373.477 92.6439 376.057 90.5911C378.637 88.5383 379.927 85.6661 379.927 81.974C379.927 78.7252 379.06 76.1335 377.325 74.1988C375.652 72.3335 372.097 69.816 366.66 66.6457L366.048 66.291C359.583 62.5396 355.49 59.4014 353.771 56.8764C352.051 54.3509 351.191 51.4344 351.191 48.1263C351.191 43.637 352.94 39.827 356.44 36.6961C359.939 33.5654 364.61 32 370.452 32C374.248 32 378.044 32.635 381.84 33.905V38.5126C378.103 36.829 374.115 35.9873 369.874 35.9873C365.544 35.9873 362.111 37.0801 359.576 39.2658C357.04 41.4514 355.772 44.2277 355.772 47.5948C355.772 50.8436 356.64 53.4279 358.375 55.3477C360.11 57.2674 363.854 59.8816 369.607 63.1897C375.568 66.5565 379.534 69.5473 381.506 72.1609C383.479 74.7751 384.465 77.7803 384.465 81.1765C384.465 86.0502 382.767 90.0228 379.371 93.0942C375.976 96.1661 371.179 97.7019 364.981 97.7019C362.786 97.7019 360.258 97.3621 357.396 96.6827C354.534 96.0038 352.347 95.2207 350.835 94.335ZM192.734 42.0224H210.976V33.0683H164V42.0224H182.197V96.6335H192.734V42.0224ZM227.791 103.901L248.342 51.2298H237.933L226.545 84.3046C226.275 85.3184 226.063 86.1437 225.91 86.7809L225.745 87.4967H225.522C225.285 86.4834 225.096 85.6918 224.956 85.1224L224.721 84.2159L213.867 51.2298H202.435L220.54 96.5411L217.47 103.99C215.572 107.773 212.695 109.665 208.84 109.665C207.506 109.665 206.023 109.399 204.392 108.867V117.424C205.845 117.808 207.654 118 209.819 118C217.53 118 223.52 113.3 227.791 103.901ZM265.236 89.9063H265.058V117.466H254.748V51.225H265.058V59.2006H265.236C268.761 53.1742 273.916 50.1615 280.701 50.1615C286.478 50.1615 290.981 52.1849 294.211 56.2317C297.44 60.2785 299.055 65.7136 299.055 72.537C299.055 80.0991 297.233 86.1544 293.588 90.7038C289.945 95.2527 284.967 97.5272 278.657 97.5272C272.85 97.5272 268.376 94.9867 265.236 89.9063ZM264.891 77.8786V72.2817C264.891 68.4036 266.008 65.172 268.243 62.5861C270.478 60.0007 273.43 58.7081 277.101 58.7081C280.564 58.7081 283.309 59.9639 285.337 62.4761C287.365 64.9882 288.378 68.4624 288.378 72.8986C288.378 78.1873 287.291 82.3079 285.115 85.2602C282.939 88.213 279.943 89.6894 276.124 89.6894C272.868 89.6894 270.182 88.5437 268.065 86.2521C265.949 83.9606 264.891 81.169 264.891 77.8786ZM345.496 76.7253H314.746C314.864 80.9239 316.148 84.1609 318.601 86.4375C321.053 88.7141 324.423 89.8524 328.711 89.8524C333.528 89.8524 337.948 88.4037 341.972 85.5064V93.7993C337.86 96.4012 332.427 97.7019 325.672 97.7019C319.034 97.7019 313.828 95.6395 310.054 91.5152C306.28 87.3909 304.393 81.5889 304.393 74.109C304.393 67.0431 306.471 61.2854 310.627 56.8358C314.782 52.3863 319.944 50.1615 326.112 50.1615C332.28 50.1615 337.053 52.1571 340.43 56.1484C343.807 60.1396 345.496 65.6832 345.496 72.7784V76.7253ZM333.297 60.7336C334.995 62.796 335.858 65.6821 335.888 69.3913H315.069C315.538 65.8893 316.79 63.0556 318.824 60.8891C320.859 58.723 323.341 57.6398 326.269 57.6398C329.256 57.6398 331.598 58.6712 333.297 60.7336ZM410.572 97.7019C415.276 97.7019 419.326 96.6688 422.72 94.6032V90.3539C419.326 92.7737 415.336 93.9836 410.751 93.9836C405.748 93.9836 401.721 92.1984 398.669 88.6275C395.617 85.0567 394.09 80.3352 394.09 74.4626C394.09 68.3839 395.758 63.4338 399.093 59.6119C402.428 55.7905 406.775 53.8798 412.135 53.8798C416.036 53.8798 419.624 54.8829 422.899 56.8898V52.2864C419.624 50.8698 416.244 50.1615 412.761 50.1615C406.031 50.1615 400.522 52.4557 396.235 57.0447C391.947 61.6337 389.803 67.5282 389.803 74.7286C389.803 81.575 391.709 87.1153 395.52 91.3496C399.331 95.5845 404.349 97.7019 410.572 97.7019ZM449.59 55.3252C448.234 54.3456 446.643 53.8563 444.816 53.8563C441.249 53.8563 438.258 55.7109 435.841 59.4201C433.424 63.1299 432.216 68.3972 432.216 75.2228V96.6335H428.237V51.0519H432.216V61.1561H432.393C433.424 57.6841 435.06 54.9839 437.3 53.055C439.54 51.1262 442.134 50.1615 445.081 50.1615C446.761 50.1615 448.264 50.4286 449.59 50.9627V55.3252ZM455.965 39.0073C456.655 39.6774 457.451 40.0124 458.353 40.0124C459.314 40.0124 460.14 39.6622 460.831 38.9617C461.522 38.2612 461.868 37.4236 461.868 36.449C461.868 35.4135 461.515 34.5912 460.809 33.982C460.103 33.3729 459.284 33.0683 458.353 33.0683C457.482 33.0683 456.693 33.3805 455.987 34.0049C455.281 34.6293 454.928 35.444 454.928 36.449C454.928 37.4846 455.273 38.3373 455.965 39.0073ZM455.996 96.6335V51.2298H460.266V96.6335H455.996ZM473.945 88.5517H474.121C477.365 94.6619 482.379 97.7174 489.161 97.7174C495.236 97.7174 500.124 95.3777 503.825 90.699C507.526 86.0203 509.377 79.8876 509.377 72.3009C509.377 65.4823 507.762 60.0873 504.533 56.1169C501.304 52.1464 496.814 50.1615 491.063 50.1615C487.436 50.1615 484.111 51.069 481.089 52.8846C478.066 54.7003 475.744 57.2755 474.121 60.6113H473.945V51.2683H469.875V117.466H473.945V88.5517ZM474.145 71.6764V77.3808C474.145 81.9206 475.59 85.8189 478.479 89.0768C481.368 92.3341 485.165 93.9627 489.87 93.9627C494.547 93.9627 498.344 91.9805 501.262 88.0154C504.181 84.0503 505.64 78.8401 505.64 72.3842C505.64 66.7242 504.3 62.2287 501.62 58.8972C498.939 55.5661 495.365 53.9006 490.898 53.9006C485.567 53.9006 481.442 55.6692 478.523 59.207C475.605 62.7442 474.145 66.901 474.145 71.6764ZM529.061 97.7019C530.908 97.7019 532.888 97.2008 535 96.1987V92.396C533.064 93.4868 531.261 94.0322 529.589 94.0322C527.242 94.0322 525.578 93.3319 524.595 91.9319C523.613 90.5318 523.121 88.2696 523.121 85.1448V55.2558H535V51.5418H523.121V38.4099C522.476 38.6458 521.801 38.8668 521.097 39.0732C520.393 39.309 519.719 39.5448 519.074 39.7806V51.5418H510.978V55.2558H519.074V85.6752C519.074 93.693 522.403 97.7019 529.061 97.7019Z" fill="#3178C6"/>
</svg>
