<svg width="291" height="287" viewBox="0 0 291 287" fill="none" xmlns="http://www.w3.org/2000/svg">
<path d="M10.827 167.656C11.457 167.517 12.0381 167.549 12.5703 167.751C13.1025 167.953 13.559 168.319 13.9397 168.848C14.3194 169.373 14.6007 170.051 14.7836 170.882C14.8645 171.25 14.9195 171.615 14.9487 171.979C14.9768 172.337 14.9804 172.689 14.9596 173.033C14.9329 173.373 14.8812 173.704 14.8045 174.025L12.711 174.486C12.8233 173.934 12.9095 173.368 12.9697 172.787C13.0299 172.206 13.0014 171.65 12.8844 171.118C12.8036 170.751 12.6902 170.467 12.5444 170.266C12.3974 170.06 12.2281 169.925 12.0361 169.861C11.8442 169.796 11.6391 169.788 11.4211 169.836C11.1545 169.895 10.9464 170.035 10.7968 170.255C10.6472 170.476 10.5245 170.761 10.4289 171.112C10.3322 171.457 10.2324 171.847 10.1296 172.28C10.0675 172.552 9.98604 172.851 9.88509 173.178C9.7793 173.505 9.63396 173.826 9.44909 174.14C9.26423 174.455 9.01838 174.735 8.71154 174.98C8.39879 175.221 8.00011 175.395 7.5155 175.502C6.88067 175.641 6.30599 175.616 5.79148 175.425C5.27697 175.234 4.84196 174.897 4.48644 174.413C4.125 173.925 3.86341 173.313 3.70173 172.578C3.58047 172.027 3.53049 171.488 3.55177 170.962C3.56714 170.431 3.63588 169.866 3.75799 169.266L5.6694 169.606C5.57814 170.138 5.52177 170.609 5.50026 171.019C5.47389 171.43 5.50483 171.836 5.59312 172.238C5.65481 172.518 5.75351 172.747 5.8892 172.925C6.02004 173.104 6.17902 173.226 6.36613 173.291C6.54838 173.358 6.74613 173.367 6.95936 173.32C7.21136 173.265 7.40864 173.145 7.55118 172.962C7.68782 172.775 7.80364 172.516 7.89868 172.186C7.99265 171.851 8.09732 171.438 8.21269 170.946C8.3504 170.348 8.51777 169.827 8.71481 169.383C8.90594 168.936 9.16765 168.566 9.49991 168.275C9.82732 167.985 10.2697 167.779 10.827 167.656Z" fill="#1D53FF"/>
<path d="M6.32152 153.13C7.15414 153.03 7.92518 153.042 8.63459 153.167C9.33909 153.292 9.96286 153.536 10.5059 153.9C11.0484 154.258 11.491 154.744 11.8337 155.356C12.1716 155.968 12.3929 156.715 12.4977 157.594C12.6025 158.474 12.5627 159.252 12.3783 159.927C12.189 160.603 11.8732 161.181 11.4308 161.663C10.9879 162.14 10.4364 162.523 9.77615 162.811C9.11593 163.1 8.36707 163.294 7.52952 163.395C6.41114 163.529 5.41641 163.463 4.54537 163.199C3.66883 162.93 2.9561 162.442 2.40714 161.735C1.85818 161.028 1.51373 160.088 1.37377 158.913C1.23439 157.743 1.34897 156.755 1.71757 155.948C2.08557 155.136 2.66422 154.498 3.45351 154.035C4.24221 153.566 5.19821 153.265 6.32152 153.13ZM7.25879 160.997C8.01259 160.906 8.65183 160.735 9.17644 160.483C9.69555 160.226 10.0789 159.878 10.3265 159.44C10.5691 159.002 10.6524 158.464 10.5763 157.825C10.499 157.176 10.291 156.667 9.95226 156.299C9.60863 155.932 9.155 155.689 8.59139 155.572C8.02226 155.451 7.36083 155.436 6.60703 155.526C5.47387 155.662 4.60728 155.98 4.00731 156.481C3.40734 156.981 3.16504 157.716 3.2804 158.684C3.35712 159.328 3.56758 159.836 3.91179 160.209C4.25049 160.577 4.7047 160.824 5.27441 160.95C5.83861 161.072 6.50007 161.088 7.25879 160.997Z" fill="#1D53FF"/>
<path d="M11.4293 145.045L11.4759 147.309L0.597749 147.546L0.469654 141.324L2.35956 141.283L2.44105 145.24L5.24617 145.179L5.17035 141.497L7.05281 141.456L7.12863 145.138L11.4293 145.045Z" fill="#1D53FF"/>
<path d="M11.7338 131.882L11.5834 134.179L2.64205 133.607L2.44943 136.549L0.533413 136.427L1.06913 128.246L2.98514 128.368L2.79249 131.31L11.7338 131.882Z" fill="#1D53FF"/>
<path d="M3.96525 109.326L14.1976 113.924L13.7403 116.505L7.85542 116.968C7.74275 116.978 7.57215 116.989 7.34366 116.999C7.11517 117.009 6.8667 117.019 6.59826 117.027C6.32493 117.034 6.06957 117.04 5.83217 117.043C5.59075 117.041 5.40034 117.036 5.26095 117.026C5.39516 117.065 5.57319 117.126 5.79504 117.21C6.01776 117.29 6.25382 117.379 6.50326 117.478C6.75356 117.572 6.98678 117.663 7.20289 117.751C7.41899 117.839 7.58306 117.908 7.69514 117.958L13.0536 120.382L12.5975 122.956L1.39992 123.808L1.79509 121.577L7.88554 121.234C8.06833 121.226 8.28619 121.219 8.53911 121.213C8.7929 121.202 9.05848 121.195 9.33583 121.194C9.60916 121.186 9.87385 121.185 10.1299 121.19C10.382 121.188 10.6001 121.194 10.7844 121.206C10.603 121.149 10.3937 121.08 10.1563 120.998C9.91403 120.915 9.66975 120.83 9.42347 120.742C9.17317 120.647 8.94242 120.557 8.7312 120.47C8.51998 120.382 8.34942 120.307 8.21953 120.244L2.49343 117.635L2.87303 115.492L9.15108 114.985C9.28904 114.974 9.47428 114.967 9.7068 114.962C9.93529 114.952 10.1833 114.945 10.4509 114.942C10.7185 114.938 10.9803 114.939 11.2364 114.943C11.4885 114.942 11.7066 114.948 11.8908 114.96C11.6526 114.883 11.3652 114.785 11.0287 114.666C10.6881 114.541 10.3505 114.414 10.0157 114.285C9.68177 114.151 9.40229 114.036 9.17728 113.942L3.57008 111.557L3.96525 109.326Z" fill="#1D53FF"/>
<path d="M17.7737 100.607L15.0664 100.624L13.9294 104.417L16.1845 105.909L15.472 108.286L6.10599 101.503L6.91442 98.8052L18.4861 98.2299L17.7737 100.607ZM13.0547 100.599L10.4044 100.633C10.2286 100.633 10.0026 100.635 9.72653 100.641C9.4471 100.641 9.16458 100.642 8.87897 100.645C8.59004 100.642 8.341 100.635 8.13189 100.624C8.31256 100.73 8.53508 100.868 8.79943 101.04C9.06045 101.205 9.30793 101.364 9.54186 101.516C9.77578 101.668 9.94241 101.777 10.0418 101.843L12.242 103.311L13.0547 100.599Z" fill="#1D53FF"/>
<path d="M11.1036 87.1872C11.4775 86.2749 11.8959 85.568 12.3588 85.0664C12.8235 84.5602 13.3377 84.2534 13.9015 84.1459C14.4653 84.0384 15.087 84.123 15.7666 84.3997C16.2258 84.5866 16.5919 84.8372 16.8648 85.1516C17.1378 85.466 17.3354 85.8139 17.4577 86.1953C17.5799 86.5768 17.6492 86.9633 17.6654 87.3551L23.265 86.1845L22.2953 88.5499L17.4475 89.3766L16.9824 90.5112L20.8464 92.0842L19.9725 94.2158L9.90273 90.1164L11.1036 87.1872ZM12.791 88.0507L12.5261 88.697L15.2467 89.8046L15.5286 89.117C15.818 88.411 15.9076 87.8591 15.7974 87.4612C15.6846 87.0569 15.3986 86.7612 14.9394 86.5743C14.4618 86.3799 14.0544 86.4066 13.7171 86.6544C13.3816 86.8976 13.0729 87.363 12.791 88.0507Z" fill="#1D53FF"/>
<path d="M27.9942 76.8513L25.1102 82.406L15.4505 77.4218L18.3344 71.8671L20.0127 72.733L18.1905 76.2426L20.3114 77.337L22.0069 74.0715L23.6851 74.9374L21.9897 78.2029L24.4806 79.4882L26.3027 75.9786L27.9942 76.8513Z" fill="#1D53FF"/>
<path d="M37.8484 61.5141L34.2386 66.6295L25.3449 60.3865L28.9548 55.2711L30.4999 56.3558L28.2191 59.5878L30.1718 60.9585L32.294 57.9513L33.8392 59.0359L31.717 62.0431L34.0103 63.653L36.2912 60.4209L37.8484 61.5141Z" fill="#1D53FF"/>
<path d="M47.16 50.237L45.2449 52.455L35.9205 50.6793L35.8768 50.7299C36.149 50.9377 36.4215 51.1489 36.6942 51.3637C36.9669 51.5784 37.2396 51.7931 37.5123 52.0079C37.7813 52.2194 38.0522 52.4325 38.3249 52.6472L42.2022 55.979L40.8559 57.5384L32.6165 50.4583L34.5169 48.2572L43.7745 49.9853L43.8085 49.9459C43.5465 49.7338 43.2848 49.5253 43.0234 49.3202C42.762 49.1152 42.5005 48.9101 42.239 48.7051C41.9808 48.4963 41.7226 48.2875 41.4644 48.0787L37.5645 44.7275L38.9206 43.1569L47.16 50.237Z" fill="#1D53FF"/>
<path d="M49.7625 39.0988L52.9167 36.1546L56.7677 40.263C56.4794 40.7894 56.1495 41.304 55.7778 41.8068C55.4027 42.3059 54.9306 42.8211 54.3614 43.3524C53.571 44.0901 52.7546 44.5608 51.9123 44.7644C51.0699 44.9681 50.221 44.9 49.3656 44.5603C48.5102 44.2206 47.6675 43.6082 46.8377 42.7229C46.0588 41.8918 45.5443 41.0239 45.2943 40.119C45.048 39.2108 45.0772 38.3028 45.382 37.3951C45.6904 36.484 46.2905 35.6122 47.1824 34.7798C47.603 34.3872 48.0604 34.0449 48.5548 33.7528C49.0492 33.4608 49.5309 33.2313 49.9999 33.0645L50.6997 34.9315C50.3416 35.0354 49.9677 35.1913 49.578 35.3992C49.1883 35.6072 48.8231 35.8702 48.4823 36.1883C47.9928 36.6451 47.6718 37.1548 47.5192 37.7172C47.3703 38.2762 47.3858 38.8512 47.5657 39.442C47.7459 40.0258 48.0917 40.5905 48.6031 41.1361C49.0874 41.6528 49.5883 42.0457 50.1056 42.3148C50.6196 42.5803 51.1355 42.6848 51.6534 42.6281C52.1679 42.5679 52.67 42.3094 53.1594 41.8525C53.3987 41.6292 53.5897 41.4305 53.7326 41.2566C53.8756 41.0756 54.0078 40.9048 54.1292 40.7441L52.5796 39.091L51.0732 40.4971L49.7625 39.0988Z" fill="#1D53FF"/>
<path d="M61.3728 37.0683L54.6198 28.5644L56.4288 27.1333L63.1818 35.6373L61.3728 37.0683Z" fill="#1D53FF"/>
<path d="M75.7545 26.8402L73.3078 28.456L64.8217 24.2171L64.7658 24.254C64.9711 24.5278 65.1756 24.8051 65.3795 25.0858C65.5833 25.3665 65.7872 25.6472 65.991 25.9279C66.1921 26.2045 66.3946 26.4831 66.5984 26.7638L69.4206 31.0231L67.7005 32.159L61.7034 23.1081L64.1314 21.5046L72.5662 25.6795L72.6097 25.6508C72.4154 25.3756 72.2205 25.1039 72.0249 24.8356C71.8292 24.5673 71.6336 24.2989 71.4379 24.0306C71.2464 23.7596 71.0549 23.4885 70.8634 23.2174L68.0248 18.9334L69.7573 17.7893L75.7545 26.8402Z" fill="#1D53FF"/>
<path d="M85.9955 21.2284L80.4548 24.156L75.3724 14.5631L80.9131 11.6354L81.7961 13.3021L78.2953 15.1518L79.4112 17.2581L82.6685 15.5369L83.5515 17.2036L80.2942 18.9247L81.6048 21.3984L85.1055 19.5486L85.9955 21.2284Z" fill="#1D53FF"/>
<path d="M96.2929 16.6301L90.5267 19.085L86.2673 9.10028L92.0336 6.64533L92.7736 8.38003L89.1303 9.93114L90.0655 12.1234L93.4554 10.6802L94.1953 12.4149L90.8055 13.8581L91.9038 16.4328L95.5471 14.8817L96.2929 16.6301Z" fill="#1D53FF"/>
<path d="M100.643 3.55369C101.583 3.24968 102.394 3.11216 103.076 3.14112C103.763 3.16855 104.329 3.36253 104.774 3.72305C105.22 4.08357 105.555 4.61229 105.781 5.30922C105.933 5.78011 105.977 6.22118 105.912 6.6324C105.847 7.04362 105.708 7.41902 105.494 7.75861C105.281 8.09819 105.03 8.40067 104.74 8.66606L109.242 12.1801L106.806 12.9684L103.051 9.80556L101.883 10.1837L103.166 14.1462L100.971 14.8566L97.6263 4.52988L100.643 3.55369ZM101.068 5.39821L100.403 5.61362L101.306 8.40367L102.014 8.17451C102.742 7.93925 103.222 7.65113 103.456 7.31015C103.693 6.96293 103.735 6.55387 103.583 6.08297C103.424 5.59324 103.141 5.29978 102.734 5.20258C102.332 5.10385 101.777 5.16906 101.068 5.39821Z" fill="#1D53FF"/>
<path d="M188.018 2.36166L186.18 9.14514C185.984 9.86699 185.647 10.4764 185.168 10.9734C184.695 11.467 184.089 11.7966 183.351 11.9623C182.617 12.1293 181.762 12.0816 180.785 11.8192C179.396 11.4461 178.433 10.808 177.897 9.90494C177.361 9.00188 177.25 7.96713 177.567 6.8007L179.397 0.0458971L181.617 0.642206L179.878 7.05998C179.643 7.92525 179.656 8.57997 179.916 9.02415C180.176 9.46832 180.653 9.78369 181.347 9.97023C181.836 10.1015 182.254 10.1239 182.601 10.0377C182.952 9.9527 183.247 9.75502 183.486 9.44464C183.724 9.13427 183.916 8.70898 184.063 8.16879L185.798 1.76535L188.018 2.36166Z" fill="#1D53FF"/>
<path d="M190.564 14.6633L194.274 4.4527L196.443 5.2349L192.733 15.4455L190.564 14.6633Z" fill="#1D53FF"/>
<path d="M213.644 12.8333L205.15 20.7443L203.306 19.8267L211.8 11.9157L213.644 12.8333Z" fill="#1D53FF"/>
<path d="M231.966 24.1897L227.971 29.9793C227.546 30.5954 227.025 31.0584 226.408 31.3683C225.798 31.6769 225.117 31.7869 224.365 31.698C223.618 31.612 222.828 31.283 221.994 30.7111C220.809 29.898 220.115 28.9764 219.91 27.9464C219.706 26.9164 219.947 25.9036 220.634 24.9081L224.612 19.1429L226.506 20.4425L222.726 25.9199C222.217 26.6584 222.01 27.2803 222.107 27.7857C222.204 28.291 222.549 28.7469 223.141 29.1535C223.558 29.4395 223.944 29.5994 224.3 29.6332C224.66 29.6698 225.004 29.5813 225.332 29.3676C225.66 29.1538 225.983 28.8164 226.301 28.3554L230.072 22.8901L231.966 24.1897Z" fill="#1D53FF"/>
<path d="M236.967 42.2645L234.961 40.5633L235.701 35.7987L231.107 37.2955L229.225 35.7001L235.61 33.7622L236.452 27.5723L238.391 29.2158L237.639 33.7074L241.927 32.2145L243.82 33.8195L237.722 35.7182L236.967 42.2645Z" fill="#1D53FF"/>
<path d="M254.898 53.2362C253.972 54.0382 253.043 54.5312 252.112 54.7152C251.188 54.8996 250.277 54.7938 249.381 54.3976C248.488 53.9982 247.632 53.3276 246.813 52.3858L244.796 50.0652L253.018 42.9446L255.255 45.5176C256.002 46.3771 256.497 47.2558 256.739 48.1536C256.984 49.0481 256.958 49.9289 256.66 50.796C256.366 51.6598 255.779 52.4732 254.898 53.2362ZM253.283 51.4702C253.891 50.9442 254.311 50.4227 254.545 49.9056C254.786 49.389 254.849 48.8758 254.735 48.3659C254.623 47.8598 254.347 47.3526 253.905 46.8443L253.1 45.9194L247.746 50.556L248.395 51.3016C249.132 52.1499 249.906 52.5831 250.718 52.6013C251.532 52.6233 252.387 52.2462 253.283 51.4702Z" fill="#1D53FF"/>
<path d="M257.354 65.8777L253.712 60.7946L262.565 54.4727L266.208 59.5558L264.669 60.6541L262.368 57.4425L260.424 58.8305L262.566 61.8188L261.027 62.9171L258.886 59.9288L256.603 61.559L258.904 64.7707L257.354 65.8777Z" fill="#1D53FF"/>
<path d="M265.964 74.0281C265.409 74.3578 264.848 74.5104 264.278 74.486C263.709 74.4615 263.16 74.258 262.632 73.8754C262.106 73.4971 261.625 72.9422 261.188 72.2109C260.996 71.8878 260.828 71.5583 260.686 71.2226C260.546 70.8911 260.431 70.5588 260.342 70.2258C260.26 69.8945 260.205 69.5645 260.176 69.2358L262.019 68.1404C262.086 68.6992 262.183 69.2636 262.309 69.8337C262.436 70.4037 262.638 70.9225 262.917 71.3902C263.11 71.7134 263.307 71.9474 263.509 72.0923C263.714 72.2414 263.917 72.3162 264.12 72.3167C264.322 72.3173 264.519 72.2605 264.711 72.1464C264.946 72.0069 265.099 71.8091 265.172 71.5529C265.244 71.2966 265.271 70.9872 265.251 70.6247C265.233 70.2663 265.205 69.8655 265.166 69.4222C265.139 69.1445 265.122 68.835 265.115 68.4937C265.112 68.1498 265.149 67.7997 265.225 67.4433C265.301 67.0869 265.446 66.7443 265.66 66.4155C265.881 66.0883 266.205 65.798 266.631 65.5444C267.19 65.2122 267.744 65.0557 268.292 65.075C268.841 65.0943 269.361 65.2778 269.851 65.6255C270.348 65.9749 270.79 66.4727 271.175 67.119C271.464 67.6037 271.682 68.0993 271.828 68.6057C271.981 69.1138 272.094 69.6715 272.167 70.2787L270.245 70.5576C270.164 70.0242 270.069 69.5596 269.96 69.1636C269.855 68.7652 269.697 68.3895 269.487 68.0366C269.34 67.79 269.174 67.6036 268.989 67.4775C268.808 67.3488 268.619 67.2829 268.42 67.2798C268.226 67.2742 268.036 67.3272 267.848 67.4388C267.626 67.5707 267.477 67.746 267.399 67.9648C267.328 68.1854 267.3 68.4672 267.314 68.8102C267.331 69.1575 267.362 69.5825 267.407 70.0853C267.465 70.6959 267.471 71.2427 267.424 71.7256C267.384 72.2103 267.252 72.643 267.028 73.0236C266.809 73.4017 266.454 73.7365 265.964 74.0281Z" fill="#1D53FF"/>
<path d="M265.641 79.8743L275.368 74.9969L276.402 77.0535L266.675 81.9309L265.641 79.8743Z" fill="#1D53FF"/>
<path d="M276.359 88.5988L277.972 92.5919L272.739 94.7013C272.351 94.244 271.989 93.7521 271.654 93.2257C271.323 92.6973 271.012 92.0729 270.721 91.3523C270.317 90.3517 270.172 89.4229 270.286 88.5657C270.4 87.7085 270.77 86.9427 271.397 86.2684C272.024 85.5942 272.901 85.0297 274.028 84.5752C275.087 84.1485 276.084 83.9812 277.02 84.0734C277.959 84.1703 278.797 84.5234 279.535 85.133C280.276 85.7472 280.874 86.6188 281.33 87.7479C281.545 88.2803 281.7 88.829 281.794 89.394C281.888 89.9591 281.929 90.4898 281.915 90.9863L279.917 90.9673C279.949 90.5967 279.938 90.1927 279.885 89.7554C279.831 89.318 279.717 88.8835 279.543 88.4521C279.293 87.8325 278.933 87.3507 278.462 87.0068C277.993 86.6674 277.45 86.4754 276.833 86.4308C276.222 86.3888 275.569 86.508 274.874 86.7881C274.216 87.0534 273.667 87.3785 273.229 87.7635C272.795 88.1466 272.511 88.5893 272.376 89.0917C272.247 89.5923 272.307 90.1524 272.557 90.772C272.68 91.0749 272.796 91.3241 272.907 91.5195C273.025 91.7176 273.137 91.902 273.243 92.0726L275.349 91.2238L274.578 89.3168L276.359 88.5988Z" fill="#1D53FF"/>
<path d="M276.748 109.332L275.952 106.517L282.587 99.7323L282.569 99.668C282.245 99.7803 281.918 99.8909 281.588 99.9997C281.257 100.109 280.927 100.217 280.597 100.326C280.272 100.434 279.944 100.542 279.614 100.651L274.686 102.045L274.126 100.066L284.597 97.1035L285.388 99.8968L278.829 106.652L278.843 106.702C279.165 106.601 279.484 106.498 279.8 106.393C280.116 106.288 280.432 106.183 280.747 106.078C281.065 105.978 281.382 105.878 281.699 105.778L286.655 104.376L287.219 106.369L276.748 109.332Z" fill="#1D53FF"/>
<path d="M278.983 120.766L277.878 114.613L288.587 112.683L289.693 118.837L287.832 119.172L287.134 115.284L284.782 115.708L285.432 119.325L283.572 119.66L282.922 116.043L280.16 116.54L280.858 120.428L278.983 120.766Z" fill="#1D53FF"/>
<path d="M290.783 127.896C290.87 128.878 290.822 129.697 290.641 130.354C290.46 131.016 290.144 131.524 289.691 131.877C289.239 132.23 288.648 132.439 287.916 132.504C287.422 132.548 286.981 132.493 286.594 132.339C286.207 132.184 285.871 131.966 285.587 131.683C285.303 131.4 285.064 131.088 284.87 130.748L280.427 134.348L280.203 131.804L284.135 128.852L284.028 127.632L279.869 128.002L279.667 125.709L290.506 124.745L290.783 127.896ZM288.886 127.901L288.825 127.206L285.896 127.466L285.961 128.206C286.028 128.965 286.202 129.496 286.483 129.799C286.769 130.107 287.159 130.239 287.653 130.195C288.167 130.149 288.517 129.939 288.703 129.565C288.89 129.195 288.951 128.641 288.886 127.901Z" fill="#1D53FF"/>
<path d="M279.798 168.566C280.227 167.419 281.481 166.806 282.652 167.164V167.164C283.951 167.562 284.638 168.987 284.132 170.248V170.248C283.633 171.492 282.181 172.052 280.972 171.473V171.473C279.889 170.954 279.376 169.691 279.798 168.566V168.566Z" fill="#1D53FF"/>
<path d="M270.105 217.174L261.891 209.547L263.153 207.247L268.874 208.689C268.984 208.715 269.149 208.76 269.368 208.823C269.588 208.886 269.826 208.957 270.083 209.035C270.344 209.115 270.588 209.191 270.814 209.264C271.042 209.343 271.22 209.409 271.349 209.463C271.235 209.383 271.086 209.268 270.903 209.117C270.717 208.971 270.522 208.811 270.318 208.638C270.111 208.469 269.919 208.308 269.743 208.155C269.567 208.003 269.433 207.885 269.343 207.802L265.047 203.792L266.306 201.498L277.182 204.269L276.092 206.257L270.215 204.636C270.039 204.586 269.83 204.523 269.589 204.448C269.345 204.377 269.092 204.298 268.828 204.211C268.567 204.13 268.316 204.047 268.075 203.961C267.836 203.882 267.631 203.807 267.461 203.736C267.614 203.848 267.79 203.981 267.989 204.134C268.192 204.29 268.395 204.449 268.6 204.611C268.807 204.781 268.996 204.94 269.168 205.09C269.34 205.241 269.478 205.366 269.581 205.467L274.165 209.77L273.118 211.68L267.011 210.154C266.876 210.12 266.699 210.068 266.477 209.998C266.257 209.935 266.02 209.862 265.766 209.78C265.511 209.698 265.263 209.613 265.022 209.527C264.783 209.448 264.579 209.373 264.408 209.302C264.609 209.451 264.85 209.636 265.13 209.857C265.412 210.084 265.691 210.312 265.967 210.542C266.24 210.775 266.468 210.973 266.651 211.134L271.195 215.186L270.105 217.174Z" fill="#1D53FF"/>
<path d="M254.469 220.728L258.052 215.594L266.978 221.791L263.395 226.925L261.844 225.849L264.108 222.605L262.148 221.244L260.042 224.262L258.491 223.186L260.597 220.168L258.296 218.57L256.032 221.814L254.469 220.728Z" fill="#1D53FF"/>
<path d="M259.778 231.68L257.6 234.27C256.669 235.378 255.808 236.087 255.018 236.395C254.227 236.704 253.441 236.531 252.658 235.876C252.343 235.612 252.101 235.322 251.933 235.007C251.761 234.695 251.673 234.376 251.669 234.05C251.666 233.723 251.754 233.403 251.934 233.088L251.877 233.041C251.587 233.27 251.278 233.438 250.949 233.544C250.624 233.654 250.273 233.663 249.895 233.574C249.518 233.491 249.111 233.267 248.674 232.901C248.169 232.479 247.839 231.993 247.686 231.444C247.532 230.895 247.552 230.31 247.744 229.689C247.937 229.075 248.298 228.453 248.828 227.823L251.446 224.709L259.778 231.68ZM254.994 230.684L254.133 231.708C253.702 232.221 253.484 232.642 253.477 232.973C253.475 233.307 253.631 233.606 253.947 233.87C254.266 234.137 254.593 234.21 254.927 234.089C255.262 233.975 255.642 233.666 256.067 233.161L256.847 232.233L254.994 230.684ZM253.592 229.511L251.421 227.694L250.454 228.844C250.008 229.375 249.799 229.831 249.829 230.212C249.858 230.592 250.046 230.927 250.392 231.216C250.597 231.388 250.816 231.493 251.048 231.532C251.281 231.572 251.531 231.52 251.801 231.376C252.067 231.237 252.358 230.979 252.674 230.604L253.592 229.511Z" fill="#1D53FF"/>
<path d="M242.774 249.788C242.334 250.174 241.882 250.449 241.418 250.613C240.954 250.776 240.506 250.813 240.076 250.722C239.643 250.635 239.259 250.402 238.925 250.023C238.463 249.499 238.232 248.922 238.231 248.29C238.226 247.662 238.339 247.01 238.569 246.333L235.62 246.183C235.69 246.577 235.796 246.964 235.94 247.345C236.081 247.729 236.237 248.102 236.411 248.464L234.633 250.025C234.372 249.496 234.139 248.89 233.933 248.207C233.728 247.531 233.608 246.829 233.575 246.1L230.452 245.945L232.561 244.095L233.759 244.16C233.844 243.815 233.965 243.475 234.12 243.141C234.272 242.81 234.465 242.489 234.699 242.178C234.93 241.87 235.204 241.577 235.521 241.299C236.14 240.756 236.756 240.386 237.37 240.19C237.984 239.994 238.561 239.966 239.1 240.105C239.643 240.248 240.117 240.55 240.523 241.011C240.863 241.397 241.095 241.78 241.218 242.16C241.344 242.543 241.387 242.937 241.347 243.342C241.31 243.75 241.213 244.18 241.057 244.633C241.458 244.69 241.806 244.767 242.102 244.863C242.395 244.962 242.654 245.087 242.879 245.238C243.105 245.396 243.314 245.585 243.507 245.804C243.848 246.191 244.04 246.612 244.084 247.067C244.128 247.529 244.038 247.994 243.814 248.46C243.59 248.933 243.243 249.376 242.774 249.788ZM239.168 244.493C239.215 244.261 239.242 244.039 239.248 243.829C239.251 243.623 239.223 243.43 239.165 243.251C239.106 243.071 239.008 242.904 238.87 242.748C238.582 242.421 238.233 242.272 237.824 242.303C237.414 242.333 237.026 242.508 236.661 242.829C236.415 243.045 236.212 243.276 236.052 243.521C235.892 243.767 235.771 244.021 235.691 244.283L239.168 244.493ZM241.626 248.463C241.816 248.296 241.956 248.088 242.046 247.838C242.133 247.59 242.059 247.335 241.827 247.071C241.663 246.885 241.454 246.746 241.2 246.653C240.95 246.563 240.664 246.498 240.343 246.456C240.176 246.912 240.084 247.303 240.067 247.628C240.052 247.957 240.145 248.234 240.345 248.461C240.544 248.688 240.765 248.781 241.007 248.74C241.248 248.706 241.454 248.614 241.626 248.463Z" fill="#1D53FF"/>
<path d="M217.805 254.844L224.518 260.71L224.575 260.675C224.46 260.507 224.285 260.254 224.052 259.915C223.817 259.583 223.57 259.227 223.311 258.846C223.052 258.465 222.824 258.116 222.629 257.801L219.971 253.507L221.725 252.424L227.44 261.655L224.768 263.305L218.206 257.598L218.168 257.622L220.215 266.115L217.542 267.765L211.827 258.534L213.657 257.404L216.362 261.773C216.542 262.064 216.745 262.401 216.971 262.785C217.193 263.172 217.401 263.541 217.595 263.892C217.792 264.248 217.94 264.514 218.038 264.692L218.095 264.657L216.006 255.954L217.805 254.844Z" fill="#1D53FF"/>
<path d="M200.223 270.22C199.871 269.461 199.644 268.726 199.544 268.014C199.446 267.307 199.486 266.639 199.665 266.011C199.839 265.384 200.165 264.814 200.642 264.298C201.122 263.787 201.765 263.345 202.571 262.972C203.377 262.599 204.13 262.395 204.83 262.359C205.532 262.329 206.181 262.448 206.777 262.718C207.368 262.99 207.903 263.394 208.382 263.931C208.86 264.467 209.277 265.117 209.631 265.881C210.104 266.9 210.349 267.864 210.366 268.773C210.38 269.688 210.135 270.516 209.631 271.257C209.127 271.997 208.336 272.617 207.26 273.115C206.189 273.611 205.211 273.81 204.329 273.711C203.442 273.614 202.655 273.264 201.97 272.659C201.28 272.057 200.698 271.244 200.223 270.22ZM207.43 266.884C207.111 266.197 206.75 265.643 206.348 265.224C205.943 264.812 205.494 264.556 204.999 264.457C204.507 264.363 203.968 264.452 203.383 264.723C202.789 264.998 202.368 265.354 202.122 265.789C201.878 266.23 201.787 266.736 201.85 267.307C201.91 267.884 202.099 268.517 202.418 269.204C202.897 270.236 203.468 270.959 204.13 271.373C204.792 271.786 205.567 271.788 206.454 271.377C207.044 271.104 207.463 270.746 207.712 270.304C207.958 269.868 208.054 269.36 207.998 268.78C207.94 268.207 207.75 267.575 207.43 266.884Z" fill="#1D53FF"/>
<path d="M196.624 277.424L193.42 278.521C192.049 278.991 190.946 279.154 190.11 279.012C189.274 278.869 188.691 278.315 188.36 277.351C188.227 276.962 188.17 276.589 188.189 276.232C188.203 275.877 188.293 275.558 188.459 275.276C188.625 274.995 188.866 274.766 189.183 274.589L189.159 274.519C188.792 274.566 188.441 274.55 188.104 274.472C187.77 274.398 187.464 274.226 187.187 273.954C186.907 273.689 186.675 273.287 186.491 272.749C186.277 272.126 186.246 271.54 186.399 270.991C186.552 270.441 186.871 269.95 187.357 269.517C187.84 269.09 188.471 268.743 189.251 268.476L193.102 267.156L196.624 277.424ZM193.046 274.105L191.779 274.539C191.145 274.757 190.74 275.005 190.563 275.286C190.388 275.57 190.367 275.907 190.501 276.296C190.635 276.689 190.877 276.92 191.226 276.989C191.572 277.064 192.057 276.995 192.681 276.781L193.829 276.388L193.046 274.105ZM192.454 272.378L191.536 269.702L190.114 270.189C189.456 270.414 189.042 270.697 188.871 271.039C188.699 271.38 188.686 271.764 188.833 272.19C188.919 272.443 189.052 272.646 189.23 272.799C189.409 272.952 189.65 273.037 189.955 273.053C190.255 273.071 190.637 273 191.102 272.841L192.454 272.378Z" fill="#1D53FF"/>
<path d="M180.786 271.057L183.496 281.568L181.262 282.144L178.551 271.633L180.786 271.057Z" fill="#1D53FF"/>
<path d="M172.975 272.935L174.922 283.614L172.652 284.029L171.046 275.22L166.704 276.014L166.363 274.144L172.975 272.935Z" fill="#1D53FF"/>
<path d="M155.606 275.353L161.843 274.745L162.888 285.55L156.651 286.158L156.469 284.281L160.41 283.896L160.181 281.524L156.514 281.882L156.332 280.004L159.999 279.647L159.73 276.86L155.789 277.245L155.606 275.353Z" fill="#1D53FF"/>
<path d="M134.346 280.816C134.406 279.595 134.692 278.585 135.204 277.787C135.71 276.993 136.417 276.41 137.325 276.037C138.232 275.67 139.31 275.516 140.559 275.576L143.636 275.724L143.098 286.568L139.686 286.404C138.547 286.349 137.568 286.099 136.751 285.653C135.933 285.212 135.314 284.585 134.892 283.772C134.47 282.963 134.288 281.978 134.346 280.816ZM136.742 280.872C136.702 281.673 136.789 282.336 137.001 282.862C137.208 283.392 137.536 283.792 137.985 284.062C138.428 284.331 138.987 284.482 139.661 284.514L140.887 284.573L141.238 277.512L140.249 277.464C139.124 277.41 138.275 277.669 137.7 278.241C137.12 278.813 136.801 279.69 136.742 280.872Z" fill="#1D53FF"/>
<path d="M123.493 273.857L129.695 274.742L128.142 285.489L121.939 284.604L122.209 282.737L126.128 283.296L126.469 280.936L122.823 280.416L123.093 278.549L126.739 279.069L127.139 276.298L123.221 275.739L123.493 273.857Z" fill="#1D53FF"/>
<path d="M107.757 281.562L113.868 271.844L116.316 272.42L117.395 283.833L115.128 283.299L114.632 276.542C114.623 276.428 114.615 276.215 114.608 275.903C114.6 275.596 114.596 275.269 114.596 274.923C114.591 274.581 114.599 274.301 114.621 274.082C114.541 274.287 114.427 274.542 114.278 274.848C114.124 275.153 113.976 275.441 113.835 275.713C113.688 275.989 113.584 276.178 113.524 276.281L110.023 282.096L107.757 281.562Z" fill="#1D53FF"/>
<path d="M100.15 267.755L106.093 269.731L102.641 280.031L96.6984 278.055L97.2981 276.266L101.053 277.514L101.811 275.253L98.3171 274.091L98.9168 272.301L102.41 273.463L103.3 270.807L99.5457 269.559L100.15 267.755Z" fill="#1D53FF"/>
<path d="M95.4723 265.966L91.169 275.942L89.0501 275.035L92.5998 266.805L88.5464 265.068L89.2999 263.321L95.4723 265.966Z" fill="#1D53FF"/>
<path d="M73.9203 261.404C74.3255 260.671 74.7859 260.053 75.3017 259.551C75.815 259.052 76.3783 258.689 76.9916 258.461C77.6006 258.23 78.2543 258.154 78.9528 258.232C79.6489 258.315 80.3857 258.57 81.1632 258.997C81.9407 259.424 82.5504 259.909 82.9924 260.452C83.4319 260.999 83.7186 261.592 83.8524 262.231C83.9818 262.867 83.9711 263.537 83.8203 264.24C83.6694 264.943 83.3902 265.664 82.9826 266.401C82.4383 267.385 81.8041 268.154 81.0798 268.706C80.3488 269.26 79.5352 269.553 78.639 269.587C77.7427 269.62 76.7755 269.351 75.7374 268.781C74.7036 268.213 73.9659 267.545 73.5243 266.776C73.0784 266.005 72.8973 265.165 72.9811 264.255C73.0606 263.343 73.3736 262.393 73.9203 261.404ZM80.8723 265.224C81.2391 264.561 81.4731 263.943 81.5742 263.371C81.6685 262.8 81.6095 262.287 81.3972 261.831C81.1825 261.38 80.7928 260.999 80.2281 260.689C79.6548 260.374 79.1193 260.246 78.6216 260.306C78.1216 260.371 77.6593 260.597 77.2349 260.986C76.8037 261.377 76.4046 261.904 76.0378 262.568C75.4863 263.565 75.2391 264.453 75.2962 265.231C75.3532 266.008 75.8096 266.632 76.6653 267.103C77.2343 267.415 77.771 267.541 78.2754 267.478C78.773 267.418 79.2397 267.194 79.6752 266.806C80.104 266.419 80.503 265.892 80.8723 265.224Z" fill="#1D53FF"/>
<path d="M63.1365 260.81C61.9826 260.014 61.313 259.184 61.1277 258.321C60.9396 257.463 61.1466 256.6 61.7487 255.732C62.02 255.341 62.3392 255.007 62.7062 254.731C63.0703 254.458 63.483 254.276 63.9444 254.185C64.4016 254.091 64.909 254.116 65.4665 254.26C66.0212 254.408 66.6248 254.707 67.2772 255.158L68.0907 255.719L70.2954 252.543L72.1914 253.852L65.9929 262.782L63.1365 260.81ZM64.3113 259.327L65.1737 259.922L67.0138 257.271L66.3899 256.84C66.0352 256.595 65.6948 256.43 65.3688 256.343C65.0428 256.257 64.7392 256.264 64.458 256.365C64.1768 256.466 63.9274 256.673 63.7097 256.987C63.4045 257.426 63.3007 257.837 63.3984 258.217C63.4932 258.602 63.7975 258.972 64.3113 259.327Z" fill="#1D53FF"/>
<path d="M57.3674 242.639L62.1846 246.632L55.226 254.987L50.4088 250.994L51.6177 249.543L54.6614 252.065L56.1893 250.231L53.3573 247.884L54.5662 246.432L57.3982 248.779L59.1926 246.625L56.149 244.102L57.3674 242.639Z" fill="#1D53FF"/>
<path d="M43.7277 244.77C43.0284 244.075 42.5362 243.419 42.2509 242.8C41.9622 242.178 41.877 241.586 41.9953 241.026C42.1137 240.465 42.432 239.925 42.9503 239.406C43.3006 239.055 43.6738 238.814 44.07 238.683C44.4662 238.552 44.8643 238.504 45.2643 238.538C45.6643 238.571 46.0486 238.656 46.4172 238.792L47.497 233.186L49.3103 234.987L48.2029 239.768L49.0726 240.632L52.0198 237.677L53.6539 239.3L45.9733 247L43.7277 244.77ZM45.1781 243.547L45.6736 244.039L47.7487 241.959L47.2216 241.436C46.6804 240.898 46.2045 240.604 45.794 240.552C45.3764 240.501 44.9925 240.651 44.6423 241.002C44.278 241.367 44.1454 241.753 44.2443 242.159C44.3397 242.561 44.651 243.024 45.1781 243.547Z" fill="#1D53FF"/>
<path d="M139.351 2.2495C139.78 1.10256 141.034 0.48954 142.205 0.847741C143.504 1.24501 144.191 2.67064 143.685 3.93124C143.186 5.17495 141.734 5.73487 140.525 5.15578C139.442 4.63685 138.929 3.37412 139.351 2.2495Z" fill="#1D53FF"/>
<path d="M21.8695 208.029C22.2992 206.882 23.5526 206.269 24.7239 206.627C26.0228 207.025 26.7104 208.45 26.2044 209.711C25.7052 210.955 24.2525 211.515 23.0439 210.936C21.9609 210.417 21.4482 209.154 21.8695 208.029Z" fill="#1D53FF"/>
</svg>
