<svg width="40" height="40" viewBox="0 0 40 40" fill="none" xmlns="http://www.w3.org/2000/svg">
<rect width="40" height="40" rx="9" fill="#1D53FF"/>
<path d="M20.1602 26H11.5371V24.2422L16.5957 17.3574H11.8398V15.082H19.9844V17.0156L15.0625 23.7246H20.1602V26ZM29.9453 22.7578C29.9453 23.5 29.7695 24.1283 29.418 24.6426C29.0729 25.1504 28.5553 25.5378 27.8652 25.8047C27.1751 26.0651 26.3158 26.1953 25.2871 26.1953C24.5254 26.1953 23.8711 26.1465 23.3242 26.0488C22.7839 25.9512 22.237 25.7884 21.6836 25.5605V23.0996C22.276 23.3665 22.9108 23.5879 23.5879 23.7637C24.2715 23.9329 24.8704 24.0176 25.3848 24.0176C25.9642 24.0176 26.3776 23.9329 26.625 23.7637C26.8789 23.5879 27.0059 23.36 27.0059 23.0801C27.0059 22.8978 26.9538 22.735 26.8496 22.5918C26.752 22.4421 26.5371 22.276 26.2051 22.0938C25.873 21.9049 25.3522 21.6608 24.6426 21.3613C23.959 21.0749 23.3958 20.7852 22.9531 20.4922C22.5169 20.1992 22.1914 19.8542 21.9766 19.457C21.7682 19.0534 21.6641 18.5423 21.6641 17.9238C21.6641 16.9147 22.0547 16.1562 22.8359 15.6484C23.6237 15.1341 24.6751 14.877 25.9902 14.877C26.6673 14.877 27.3118 14.9453 27.9238 15.082C28.5423 15.2188 29.1771 15.4368 29.8281 15.7363L28.9297 17.8848C28.3893 17.6504 27.8783 17.4583 27.3965 17.3086C26.9212 17.1589 26.4362 17.084 25.9414 17.084C25.5052 17.084 25.1764 17.1426 24.9551 17.2598C24.7337 17.377 24.623 17.556 24.623 17.7969C24.623 17.9727 24.6784 18.1289 24.7891 18.2656C24.9062 18.4023 25.1276 18.5553 25.4531 18.7246C25.7852 18.8874 26.2702 19.099 26.9082 19.3594C27.5267 19.6133 28.0638 19.8802 28.5195 20.1602C28.9753 20.4336 29.3268 20.7754 29.5742 21.1855C29.8216 21.5892 29.9453 22.1133 29.9453 22.7578Z" fill="white"/>
</svg>
