<svg width="2500" height="677" viewBox="0 0 2500 677" fill="none" xmlns="http://www.w3.org/2000/svg">
<path fill-rule="evenodd" clip-rule="evenodd" d="M735.352 502.098V194.48H774.902L962.891 442.039V194.48H1000.49V502.098H960.937L772.949 252.098V502.098H735.352ZM1306.64 489.891C1281.74 499.168 1254.88 504.051 1226.56 504.051C1115.23 504.051 1059.57 450.828 1059.57 343.895C1059.57 242.82 1113.28 192.039 1220.7 192.039C1251.46 192.039 1280.27 196.434 1306.64 204.734V238.914C1280.27 228.66 1252.93 223.777 1225.1 223.777C1141.11 223.777 1099.12 263.816 1099.12 342.918C1099.12 428.367 1140.62 470.848 1223.14 470.848C1236.33 470.848 1250.98 468.895 1267.09 465.477V362.449H1306.64V489.891V489.891ZM1370.12 383.445V194.48H1409.67V383.445C1409.67 442.527 1438.96 472.312 1498.05 472.312C1556.64 472.312 1586.43 442.527 1586.43 383.445V194.48H1625.98V383.445C1625.98 464.012 1583.5 504.539 1498.05 504.539C1412.6 504.539 1370.12 464.012 1370.12 383.445V383.445ZM1736.33 194.48V469.871H1897.46V502.098H1696.78V194.48H1736.33V194.48ZM1954.59 502.098H1913.09L2065.92 153.953L2218.75 502.098H2174.8L2135.25 405.418H2033.69L2044.43 373.191H2122.07L2064.45 234.031L1954.59 502.098V502.098ZM2261.23 502.098V194.48H2392.58C2451.17 194.48 2480.47 218.895 2480.47 268.211C2480.47 308.25 2451.66 338.035 2394.53 357.078L2500 502.098H2447.75L2350.1 363.914V338.035C2408.69 328.758 2438.48 306.297 2438.48 270.164C2438.48 241.844 2422.36 227.684 2389.65 227.684H2301.76V502.098H2261.23V502.098Z" fill="#D2D2D2"/>
<path fill-rule="evenodd" clip-rule="evenodd" d="M0 112.449L314.941 0.144531L638.184 110.496L585.938 527L314.941 676.902L48.3398 528.953L0 112.449Z" fill="#D2D2D2"/>
<path fill-rule="evenodd" clip-rule="evenodd" d="M315.43 79.2461L119.141 515.77L192.383 514.305L231.934 415.672H407.227L450.195 515.281L520.02 516.746L315.43 79.2461V79.2461ZM315.918 219.383L382.324 358.055H257.812L315.918 219.383V219.383Z" fill="white"/>
</svg>
