<svg width="380" height="554" viewBox="0 0 380 554" fill="none" xmlns="http://www.w3.org/2000/svg">
<g clip-path="url(#clip0_111_3981)">
<path d="M0.109863 451H57.8099V462.29H11.8099V496.44H53.3599V507.59H11.8199V550.8H0.109863V451Z" fill="#D2D2D2"/>
<path d="M70 451H81.85V550.79H70V451Z" fill="#D2D2D2"/>
<path d="M102 545.46C97.4936 540.44 95.2402 533.423 95.2402 524.41V479.68H107.08V522.61C107.08 529.39 108.614 534.36 111.68 537.52C114.747 540.68 118.88 542.26 124.08 542.26C127.876 542.323 131.598 541.205 134.73 539.06C137.833 536.946 140.337 534.066 142 530.7C143.701 527.326 144.582 523.599 144.57 519.82V479.68H156.43V550.76H145.13V540.44H144.57C142.358 544.229 139.125 547.32 135.24 549.36C131.079 551.755 126.361 553.01 121.56 553C113.04 553 106.52 550.487 102 545.46Z" fill="#D2D2D2"/>
<path d="M191.15 551.57C188.846 550.725 186.737 549.422 184.95 547.74C183.117 545.99 181.69 543.86 180.77 541.5C179.77 538.725 179.295 535.788 179.37 532.84V490.41H167V479.68H179.4V459.61H191.25V479.68H208.5V490.41H191.22V530C191.22 534 191.96 536.943 193.44 538.83C195.21 540.93 197.77 541.97 201.11 541.97C203.887 541.947 206.598 541.124 208.92 539.6V551.17C207.563 551.8 206.137 552.267 204.67 552.56C202.85 552.866 201.006 553.007 199.16 552.98C196.426 553.002 193.712 552.524 191.15 551.57Z" fill="#D2D2D2"/>
<path d="M240.13 551.57C237.825 550.727 235.716 549.424 233.93 547.74C232.097 545.99 230.67 543.86 229.75 541.5C228.745 538.726 228.27 535.789 228.35 532.84V490.41H216V479.68H228.4V459.61H240.24V479.68H257.53V490.41H240.19V530C240.19 534 240.94 536.93 242.42 538.83C244.19 540.93 246.74 541.97 250.09 541.97C252.864 541.948 255.573 541.125 257.89 539.6V551.17C256.537 551.8 255.114 552.267 253.65 552.56C251.83 552.866 249.986 553.007 248.14 552.98C245.407 553 242.692 552.522 240.13 551.57V551.57Z" fill="#D2D2D2"/>
<path d="M280.2 548.1C274.834 544.874 270.468 540.221 267.59 534.66C264.509 528.699 262.949 522.069 263.05 515.36C262.975 508.783 264.43 502.278 267.3 496.36C269.994 490.754 274.163 485.987 279.36 482.57C284.747 479.075 291.06 477.278 297.48 477.41C303.837 477.252 310.112 478.869 315.6 482.08C320.685 485.164 324.772 489.65 327.37 495C330.204 500.862 331.615 507.31 331.49 513.82C331.511 515.04 331.369 516.257 331.07 517.44H274.91C275.017 522.252 276.36 526.957 278.81 531.1C280.946 534.642 284.005 537.535 287.66 539.47C291.115 541.295 294.963 542.25 298.87 542.25C307.983 542.25 315 537.98 319.92 529.44L329.92 534.32C327.043 539.894 322.749 544.612 317.47 548C312.23 551.333 305.897 553 298.47 553C292.044 553.089 285.719 551.393 280.2 548.1V548.1ZM318.93 507.68C318.707 504.567 317.853 501.532 316.42 498.76C314.813 495.661 312.394 493.058 309.42 491.23C305.777 489.074 301.59 488.012 297.36 488.17C292.122 488.037 287.041 489.966 283.21 493.54C279.243 497.328 276.585 502.28 275.62 507.68H318.93Z" fill="#D2D2D2"/>
<path d="M339.16 479.68H350.45V491.1H351C352.522 487.035 355.368 483.6 359.08 481.35C362.786 478.837 367.153 477.476 371.63 477.44C374.498 477.375 377.348 477.906 380 479V491.68C376.886 490.167 373.462 489.403 370 489.45C366.615 489.435 363.306 490.457 360.52 492.38C357.593 494.392 355.22 497.109 353.62 500.28C351.886 503.565 350.986 507.225 351 510.94V550.76H339.17V479.68H339.16Z" fill="#D2D2D2"/>
<path d="M306.83 175.34L204.57 277.6L306.83 379.89H189.94L146.11 336.06L87.66 277.6L189.94 175.34H306.83ZM189.94 0L0 189.94L58.46 248.4L306.83 0H189.94Z" fill="#D2D2D2"/>
</g>
<defs>
<clipPath id="clip0_111_3981">
<rect width="380" height="553.01" fill="white"/>
</clipPath>
</defs>
</svg>
