<svg width="1380" height="1069" viewBox="0 0 1380 1069" fill="none" xmlns="http://www.w3.org/2000/svg">
<path d="M1021 0H391V630H1021V0Z" fill="#D2D2D2"/>
<path d="M814.2 492.19C826.89 512.91 843.4 528.14 872.6 528.14C897.13 528.14 912.8 515.88 912.8 498.94C912.8 478.64 896.7 471.45 869.7 459.64L854.9 453.29C812.18 435.09 783.8 412.29 783.8 364.09C783.8 319.69 817.63 285.89 870.5 285.89C908.14 285.89 935.2 298.99 954.7 333.29L908.6 362.89C898.45 344.69 887.5 337.52 870.5 337.52C853.16 337.52 842.17 348.52 842.17 362.89C842.17 380.65 853.17 387.84 878.57 398.84L893.37 405.18C943.67 426.75 972.07 448.74 972.07 498.18C972.07 551.48 930.2 580.68 873.97 580.68C818.99 580.68 783.47 554.48 766.09 520.14L814.2 492.19ZM605.07 497.32C614.37 513.82 622.83 527.77 643.17 527.77C662.62 527.77 674.89 520.16 674.89 490.57V289.27H734.09V491.37C734.09 552.67 698.15 580.57 645.69 580.57C598.29 580.57 570.84 556.04 556.88 526.495L605.07 497.32Z" fill="white"/>
<path d="M23.3887 1053.4C18.5059 1053.4 14.209 1053.05 10.498 1052.37C6.78711 1051.69 3.61328 1050.76 0.976562 1049.59V1028.35C4.10156 1029.32 7.4707 1030.06 11.084 1030.54C14.6973 1031.13 18.6035 1031.42 22.8027 1031.42C28.2715 1031.42 33.3008 1030.35 37.8906 1028.2C42.4805 1026.05 46.1426 1022.39 48.877 1017.21C51.6113 1012.04 52.9785 1004.91 52.9785 995.828V782.84H78.0273V993.924C78.0273 1007.3 75.7812 1018.39 71.2891 1027.18C66.8945 1035.96 60.5957 1042.51 52.3926 1046.8C44.2871 1051.2 34.6191 1053.4 23.3887 1053.4Z" fill="#D2D2D2"/>
<path d="M191.26 833.816C210.4 833.816 224.609 838.113 233.887 846.707C243.164 855.301 247.803 869.021 247.803 887.869V997H230.078L225.391 973.27H224.219C219.727 979.129 215.039 984.061 210.156 988.064C205.273 991.971 199.609 994.949 193.164 997C186.816 998.953 179.004 999.93 169.727 999.93C159.961 999.93 151.27 998.221 143.652 994.803C136.133 991.385 130.176 986.209 125.781 979.275C121.484 972.342 119.336 963.553 119.336 952.908C119.336 936.893 125.684 924.588 138.379 915.994C151.074 907.4 170.41 902.713 196.387 901.932L224.072 900.76V890.945C224.072 877.078 221.094 867.361 215.137 861.795C209.18 856.229 200.781 853.445 189.941 853.445C181.543 853.445 173.535 854.666 165.918 857.107C158.301 859.549 151.074 862.43 144.238 865.75L136.768 847.293C143.994 843.582 152.295 840.408 161.67 837.771C171.045 835.135 180.908 833.816 191.26 833.816ZM223.779 917.898L199.316 918.924C179.297 919.705 165.186 922.977 156.982 928.738C148.779 934.5 144.678 942.654 144.678 953.201C144.678 962.381 147.461 969.168 153.027 973.562C158.594 977.957 165.967 980.154 175.146 980.154C189.404 980.154 201.074 976.199 210.156 968.289C219.238 960.379 223.779 948.514 223.779 932.693V917.898Z" fill="#D2D2D2"/>
<path d="M333.203 997L272.266 836.453H298.34L333.643 933.572C336.084 940.213 338.574 947.537 341.113 955.545C343.652 963.553 345.41 969.998 346.387 974.881H347.412C348.584 969.998 350.537 963.553 353.271 955.545C356.006 947.439 358.496 940.115 360.742 933.572L396.045 836.453H422.119L361.035 997H333.203Z" fill="#D2D2D2"/>
<path d="M507.959 833.816C527.1 833.816 541.309 838.113 550.586 846.707C559.863 855.301 564.502 869.021 564.502 887.869V997H546.777L542.09 973.27H540.918C536.426 979.129 531.738 984.061 526.855 988.064C521.973 991.971 516.309 994.949 509.863 997C503.516 998.953 495.703 999.93 486.426 999.93C476.66 999.93 467.969 998.221 460.352 994.803C452.832 991.385 446.875 986.209 442.48 979.275C438.184 972.342 436.035 963.553 436.035 952.908C436.035 936.893 442.383 924.588 455.078 915.994C467.773 907.4 487.109 902.713 513.086 901.932L540.771 900.76V890.945C540.771 877.078 537.793 867.361 531.836 861.795C525.879 856.229 517.48 853.445 506.641 853.445C498.242 853.445 490.234 854.666 482.617 857.107C475 859.549 467.773 862.43 460.938 865.75L453.467 847.293C460.693 843.582 468.994 840.408 478.369 837.771C487.744 835.135 497.607 833.816 507.959 833.816ZM540.479 917.898L516.016 918.924C495.996 919.705 481.885 922.977 473.682 928.738C465.479 934.5 461.377 942.654 461.377 953.201C461.377 962.381 464.16 969.168 469.727 973.562C475.293 977.957 482.666 980.154 491.846 980.154C506.104 980.154 517.773 976.199 526.855 968.289C535.938 960.379 540.479 948.514 540.479 932.693V917.898Z" fill="#D2D2D2"/>
<path d="M739.111 940.018C739.111 952.713 735.938 963.553 729.59 972.537C723.34 981.424 714.551 988.211 703.223 992.898C691.895 997.586 678.564 999.93 663.232 999.93C655.127 999.93 647.461 999.539 640.234 998.758C633.008 997.977 626.367 996.854 620.312 995.389C614.258 993.924 608.936 992.117 604.346 989.969V966.092C611.67 969.119 620.605 971.951 631.152 974.588C641.699 977.127 652.734 978.396 664.258 978.396C675 978.396 684.082 976.98 691.504 974.148C698.926 971.219 704.541 967.068 708.35 961.697C712.256 956.229 714.209 949.686 714.209 942.068C714.209 934.744 712.598 928.641 709.375 923.758C706.152 918.777 700.781 914.285 693.262 910.281C685.84 906.18 675.684 901.834 662.793 897.244C653.711 894.021 645.703 890.506 638.77 886.697C631.836 882.791 626.025 878.396 621.338 873.514C616.65 868.631 613.086 862.967 610.645 856.521C608.301 850.076 607.129 842.703 607.129 834.402C607.129 822.977 610.01 813.211 615.771 805.105C621.631 796.902 629.688 790.652 639.941 786.355C650.293 781.961 662.158 779.764 675.537 779.764C686.963 779.764 697.51 780.838 707.178 782.986C716.943 785.135 725.879 788.016 733.984 791.629L726.221 813.016C718.506 809.793 710.303 807.107 701.611 804.959C693.018 802.811 684.131 801.736 674.951 801.736C665.771 801.736 658.008 803.104 651.66 805.838C645.41 808.475 640.625 812.234 637.305 817.117C633.984 822 632.324 827.811 632.324 834.549C632.324 842.068 633.887 848.318 637.012 853.299C640.234 858.279 645.312 862.723 652.246 866.629C659.277 870.438 668.555 874.441 680.078 878.641C692.676 883.23 703.369 888.113 712.158 893.289C720.947 898.367 727.637 904.617 732.227 912.039C736.816 919.363 739.111 928.689 739.111 940.018Z" fill="#D2D2D2"/>
<path d="M843.555 999.93C829.102 999.93 816.357 996.951 805.322 990.994C794.287 985.037 785.693 975.955 779.541 963.748C773.389 951.541 770.312 936.16 770.312 917.605C770.312 898.172 773.535 882.303 779.98 869.998C786.523 857.596 795.508 848.416 806.934 842.459C818.359 836.502 831.348 833.523 845.898 833.523C853.906 833.523 861.621 834.354 869.043 836.014C876.562 837.576 882.715 839.578 887.5 842.02L880.176 862.381C875.293 860.428 869.629 858.67 863.184 857.107C856.836 855.545 850.879 854.764 845.312 854.764C834.18 854.764 824.902 857.156 817.48 861.941C810.156 866.727 804.639 873.758 800.928 883.035C797.314 892.312 795.508 903.738 795.508 917.312C795.508 930.301 797.266 941.385 800.781 950.564C804.395 959.744 809.717 966.775 816.748 971.658C823.877 976.443 832.764 978.836 843.408 978.836C851.904 978.836 859.57 977.957 866.406 976.199C873.242 974.344 879.443 972.195 885.01 969.754V991.434C879.639 994.168 873.633 996.268 866.992 997.732C860.449 999.197 852.637 999.93 843.555 999.93Z" fill="#D2D2D2"/>
<path d="M996.045 833.523C999.268 833.523 1002.64 833.719 1006.15 834.109C1009.67 834.402 1012.79 834.842 1015.53 835.428L1012.45 857.986C1009.81 857.303 1006.88 856.766 1003.66 856.375C1000.44 855.984 997.412 855.789 994.58 855.789C988.135 855.789 982.031 857.107 976.27 859.744C970.605 862.283 965.625 865.994 961.328 870.877C957.031 875.662 953.662 881.473 951.221 888.309C948.779 895.047 947.559 902.566 947.559 910.867V997H923.096V836.453H943.311L945.947 866.043H946.973C950.293 860.086 954.297 854.666 958.984 849.783C963.672 844.803 969.092 840.848 975.244 837.918C981.494 834.988 988.428 833.523 996.045 833.523Z" fill="#D2D2D2"/>
<path d="M1070.17 836.453V997H1045.85V836.453H1070.17ZM1058.3 776.395C1062.3 776.395 1065.72 777.713 1068.55 780.35C1071.48 782.889 1072.95 786.893 1072.95 792.361C1072.95 797.732 1071.48 801.736 1068.55 804.373C1065.72 807.01 1062.3 808.328 1058.3 808.328C1054.1 808.328 1050.59 807.01 1047.75 804.373C1045.02 801.736 1043.65 797.732 1043.65 792.361C1043.65 786.893 1045.02 782.889 1047.75 780.35C1050.59 777.713 1054.1 776.395 1058.3 776.395Z" fill="#D2D2D2"/>
<path d="M1197.17 833.523C1217.19 833.523 1233.15 840.408 1245.07 854.178C1256.98 867.947 1262.94 888.65 1262.94 916.287C1262.94 934.549 1260.21 949.881 1254.74 962.283C1249.27 974.686 1241.55 984.061 1231.59 990.408C1221.73 996.756 1210.06 999.93 1196.58 999.93C1188.09 999.93 1180.62 998.807 1174.17 996.561C1167.72 994.314 1162.21 991.287 1157.62 987.479C1153.03 983.67 1149.22 979.52 1146.19 975.027H1144.43C1144.73 978.836 1145.07 983.426 1145.46 988.797C1145.95 994.168 1146.19 998.855 1146.19 1002.86V1068.78H1121.73V836.453H1141.8L1145.02 860.184H1146.19C1149.32 855.301 1153.12 850.857 1157.62 846.854C1162.11 842.752 1167.58 839.529 1174.02 837.186C1180.57 834.744 1188.28 833.523 1197.17 833.523ZM1192.92 854.031C1181.79 854.031 1172.8 856.18 1165.97 860.477C1159.23 864.773 1154.3 871.219 1151.17 879.812C1148.05 888.309 1146.39 899.002 1146.19 911.893V916.58C1146.19 930.154 1147.66 941.629 1150.59 951.004C1153.61 960.379 1158.54 967.508 1165.38 972.391C1172.31 977.273 1181.59 979.715 1193.21 979.715C1203.17 979.715 1211.47 977.029 1218.12 971.658C1224.76 966.287 1229.69 958.816 1232.91 949.246C1236.23 939.578 1237.89 928.494 1237.89 915.994C1237.89 897.049 1234.18 882.01 1226.76 870.877C1219.43 859.646 1208.15 854.031 1192.92 854.031Z" fill="#D2D2D2"/>
<path d="M1357.28 980.008C1361.28 980.008 1365.38 979.666 1369.58 978.982C1373.78 978.299 1377.2 977.469 1379.83 976.492V995.389C1377 996.658 1373.05 997.732 1367.97 998.611C1362.99 999.49 1358.11 999.93 1353.32 999.93C1344.82 999.93 1337.11 998.465 1330.18 995.535C1323.24 992.508 1317.68 987.43 1313.48 980.301C1309.38 973.172 1307.32 963.309 1307.32 950.711V855.496H1284.47V843.631L1307.47 834.109L1317.14 799.246H1331.79V836.453H1378.81V855.496H1331.79V949.979C1331.79 960.037 1334.08 967.557 1338.67 972.537C1343.36 977.518 1349.56 980.008 1357.28 980.008Z" fill="#D2D2D2"/>
</svg>
