<svg width="476" height="116" viewBox="0 0 476 116" fill="none" xmlns="http://www.w3.org/2000/svg">
<path d="M179.613 58.9293C179.613 44.3672 175.461 36.8912 167.157 36.4818C163.852 36.3258 160.626 36.8522 157.488 38.0706C154.983 38.9673 153.296 39.8543 152.409 40.751V75.5091C157.721 78.8427 162.439 80.3924 166.552 80.1488C175.257 79.5737 179.613 72.507 179.613 58.9293ZM189.858 59.5337C189.858 66.9317 188.123 73.0724 184.633 77.9557C180.744 83.4823 175.354 86.3284 168.463 86.4844C163.268 86.6501 157.916 85.0223 152.409 81.6108V113.201L143.5 110.024V39.903C144.963 38.1096 146.844 36.5695 149.125 35.2634C154.427 32.1736 160.87 30.5848 168.453 30.5068L168.58 30.6335C175.51 30.5458 180.851 33.392 184.604 39.1622C188.103 44.4549 189.858 51.2389 189.858 59.5337Z" fill="#D2D2D2"/>
<path d="M244.305 80.2657C244.305 90.1883 243.311 97.06 241.322 100.881C239.324 104.702 235.523 107.753 229.909 110.024C225.357 111.817 220.434 112.792 215.151 112.957L213.68 107.343C219.05 106.612 222.832 105.881 225.025 105.15C229.343 103.688 232.306 101.446 233.934 98.444C235.24 95.9975 235.884 91.3287 235.884 84.418V82.0982C229.792 84.8664 223.407 86.2407 216.73 86.2407C212.344 86.2407 208.475 84.8664 205.141 82.0982C201.398 79.0863 199.527 75.2655 199.527 70.6356V33.5577L208.436 30.5068V67.8284C208.436 71.815 209.722 74.8853 212.296 77.0394C214.869 79.1935 218.202 80.2267 222.286 80.1488C226.37 80.061 230.747 78.482 235.396 75.3922V31.8519H244.305V80.2657Z" fill="#D2D2D2"/>
<path d="M279.082 85.997C278.02 86.0847 277.045 86.1237 276.148 86.1237C271.109 86.1237 267.181 84.9248 264.374 82.5173C261.577 80.1098 260.173 76.786 260.173 72.546V37.4565H254.071V31.8519H260.173V16.9681L269.072 13.8003V31.8519H279.082V37.4565H269.072V72.3023C269.072 75.6456 269.969 78.0141 271.762 79.3982C273.302 80.5386 275.749 81.1917 279.082 81.3574V85.997Z" fill="#D2D2D2"/>
<path d="M333.023 85.2661H324.114V50.8784C324.114 47.3791 323.295 44.3673 321.668 41.8525C319.786 39.0064 317.174 37.5833 313.821 37.5833C309.737 37.5833 304.63 39.7374 298.499 44.0456V85.2661H289.59V3.06888L298.499 0.261719V37.7003C304.191 33.5578 310.41 31.4816 317.164 31.4816C321.882 31.4816 325.703 33.0704 328.627 36.2382C331.561 39.406 333.023 43.3536 333.023 48.0712V85.2661Z" fill="#D2D2D2"/>
<path d="M380.374 57.5258C380.374 51.9309 379.312 47.3108 377.197 43.6557C374.682 39.2012 370.773 36.8522 365.49 36.6085C355.724 37.1738 350.85 44.1723 350.85 57.5842C350.85 63.7347 351.864 68.8714 353.911 72.9944C356.523 78.2481 360.441 80.8408 365.666 80.7531C375.471 80.6751 380.374 72.9359 380.374 57.5258ZM390.131 57.5842C390.131 65.5476 388.094 72.1756 384.029 77.4683C379.556 83.3945 373.376 86.3674 365.49 86.3674C357.673 86.3674 351.581 83.3945 347.185 77.4683C343.199 72.1756 341.21 65.5476 341.21 57.5842C341.21 50.0985 343.365 43.8019 347.673 38.6749C352.225 33.236 358.209 30.5068 365.607 30.5068C373.005 30.5068 379.029 33.236 383.669 38.6749C387.977 43.8019 390.131 50.0985 390.131 57.5842Z" fill="#D2D2D2"/>
<path d="M441.206 85.266H432.297V48.9288C432.297 44.9423 431.098 41.833 428.701 39.5911C426.303 37.359 423.106 36.2771 419.119 36.3648C414.889 36.4428 410.863 37.8269 407.043 40.5073V85.266H398.134V39.4059C403.261 35.6728 407.978 33.236 412.287 32.0956C416.351 31.0332 419.938 30.5068 423.028 30.5068C425.143 30.5068 427.131 30.7115 429.003 31.1209C432.502 31.9299 435.348 33.431 437.541 35.6338C439.988 38.0706 441.206 40.9947 441.206 44.4159V85.266Z" fill="#D2D2D2"/>
<path d="M55.5101 3.39789C50.9264 3.41919 46.5492 3.81011 42.6976 4.49164C31.3514 6.49615 29.2913 10.6917 29.2913 18.4291V28.6479H56.1038V32.0541H29.2913H19.2288C11.4364 32.0541 4.61308 36.7379 2.47884 45.6479C0.0170239 55.8609 -0.0921713 62.2339 2.47884 72.8979C4.38477 80.8357 8.93639 86.4916 16.7288 86.4916H25.9476V74.2416C25.9476 65.3917 33.6047 57.5854 42.6976 57.5854H69.4788C76.9338 57.5854 82.8851 51.4472 82.8851 43.9604V18.4291C82.8851 11.1628 76.7551 5.70436 69.4788 4.49164C64.8729 3.72492 60.0937 3.37659 55.5101 3.39789ZM41.0101 11.6166C43.7796 11.6166 46.0413 13.9153 46.0413 16.7416C46.0413 19.558 43.7796 21.8354 41.0101 21.8354C38.2306 21.8354 35.9788 19.558 35.9788 16.7416C35.9788 13.9153 38.2306 11.6166 41.0101 11.6166Z" fill="#D2D2D2"/>
<path d="M86.229 32.0542V43.9604C86.229 53.1912 78.4031 60.9604 69.479 60.9604H42.6978C35.3619 60.9604 29.2915 67.2389 29.2915 74.5854V100.117C29.2915 107.383 35.6101 111.657 42.6978 113.742C51.1851 116.237 59.324 116.688 69.479 113.742C76.2292 111.787 82.8853 107.854 82.8853 100.117V89.8979H56.104V86.4917H82.8853H96.2915C104.084 86.4917 106.988 81.0563 109.698 72.8979C112.497 64.4991 112.378 56.4222 109.698 45.6479C107.772 37.8905 104.094 32.0542 96.2915 32.0542H86.229ZM71.1665 96.7104C73.946 96.7105 76.1978 98.9879 76.1978 101.804C76.1978 104.631 73.946 106.929 71.1665 106.929C68.397 106.929 66.1353 104.631 66.1353 101.804C66.1353 98.9879 68.397 96.7104 71.1665 96.7104Z" fill="#D2D2D2"/>
<path d="M458.555 23.9092H460.117V14.113H463.817V12.9453H454.854V14.113H458.555V23.9092ZM465.202 23.9092H466.536V14.9622L469.433 23.9081H470.918L473.936 14.9925V23.9092H475.392V12.9453H473.466L470.168 22.3382L467.355 12.9453H465.202V23.9092Z" fill="#D2D2D2"/>
</svg>
