<svg width="192" height="60" viewBox="0 0 192 60" fill="none" xmlns="http://www.w3.org/2000/svg">
<path d="M59.2528 16.413C59.2493 15.817 59.2427 15.2214 59.2263 14.6248C59.1916 13.3269 59.1148 12.0173 58.8841 10.7333C58.65 9.4294 58.2674 8.2169 57.6643 7.0323C57.0724 5.869 56.2985 4.8046 55.3753 3.8814C54.4524 2.9583 53.3879 2.1846 52.2241 1.5923C51.0406 0.9899 49.8279 0.6074 48.5252 0.3733C47.2405 0.1419 45.9308 0.0657 44.632 0.0306C44.0357 0.0144 43.4399 0.0077 42.8437 0.004C42.1363 0 41.4282 0 40.7207 0H25.0347H18.5363C17.8282 0 17.1209 0 16.4135 0.004C15.8172 0.0077 15.2207 0.0144 14.6252 0.0306C14.3006 0.0394 13.9752 0.0507 13.6496 0.0664C12.673 0.1136 11.695 0.1998 10.732 0.3733C9.75494 0.5489 8.82844 0.808 7.92704 1.1806C7.62654 1.3049 7.32884 1.4417 7.03294 1.5923C6.16004 2.0365 5.34284 2.5828 4.59964 3.2176C4.35184 3.4292 4.11234 3.6506 3.88164 3.8814C2.95834 4.8046 2.18444 5.869 1.59254 7.0323C0.989438 8.2168 0.607338 9.4293 0.373038 10.7333C0.142538 12.0173 0.0659381 13.327 0.0310381 14.6248C0.0146381 15.2214 0.00773811 15.8171 0.00383811 16.413C-0.000561889 17.1207 3.81111e-05 17.8286 3.81111e-05 18.5362V28.1962V40.7204C3.81111e-05 41.4287 -0.000661889 42.1359 0.00393811 42.8442C0.00783811 43.4402 0.0147381 44.0358 0.0311381 44.6314C0.0660381 45.9299 0.142638 47.2399 0.373138 48.5233C0.607438 49.8269 0.989538 51.0404 1.59264 52.2246C2.18454 53.3882 2.95844 54.4523 3.88174 55.3751C4.80434 56.2986 5.86914 57.0723 7.03304 57.6649C8.21674 58.2673 9.42924 58.6494 10.7323 58.8835C12.0162 59.1146 13.3268 59.1914 14.6254 59.2262C15.2209 59.2421 15.8173 59.2491 16.4137 59.2525C17.1211 59.2576 17.8284 59.2569 18.5365 59.2569H40.7209C41.4283 59.2569 42.1364 59.2576 42.8439 59.2525C43.44 59.2491 44.0358 59.242 44.6322 59.2262C45.931 59.1915 47.2407 59.1146 48.5254 58.8835C49.8281 58.6494 51.0408 58.2673 52.2243 57.6649C53.3881 57.0723 54.4526 56.2986 55.3755 55.3751C56.2987 54.4523 57.0725 53.3882 57.6645 52.2246C58.2676 51.0404 58.6502 49.8269 58.8843 48.5233C59.115 47.2399 59.1918 45.93 59.2265 44.6314C59.2429 44.0358 59.2495 43.4401 59.253 42.8442C59.2576 42.1359 59.2572 41.4287 59.2572 40.7204V18.5362C59.257 17.8286 59.2573 17.1207 59.2528 16.413Z" fill="#D2D2D2"/>
<path d="M46.9544 36.5781C46.953 36.5763 46.9517 36.5751 46.9503 36.5733C47.0159 36.3502 47.0835 36.1285 47.1409 35.8998C49.6004 26.1011 43.5978 14.5162 33.4403 8.4165C37.8915 14.4508 39.8597 21.7596 38.1111 28.1514C37.9551 28.7215 37.7676 29.2687 37.5604 29.8005C37.3355 29.6528 37.0521 29.485 36.6716 29.2752C36.6716 29.2752 26.5675 23.0366 15.6164 12.002C15.329 11.7123 21.456 20.7592 28.4094 28.1055C25.1334 26.2669 16.0036 19.6242 10.2239 14.3343C10.934 15.5185 11.7786 16.6588 12.707 17.7567C17.5336 23.8778 23.828 31.4302 31.3692 37.2296C26.0707 40.472 18.5839 40.7242 11.1297 37.2329C9.28604 36.3688 7.55264 35.3263 5.94824 34.1417C9.10364 39.1888 13.9633 43.5434 19.878 46.0855C26.9315 49.1167 33.9458 48.9112 39.17 46.1352L39.1659 46.1412C39.1898 46.1261 39.22 46.1097 39.2448 46.0944C39.4593 45.9791 39.6722 45.8617 39.8805 45.7376C42.3906 44.4347 47.3483 43.113 50.0094 48.2906C50.661 49.5579 52.0458 42.8427 46.9544 36.5781Z" fill="white"/>
<path d="M81.7961 38.5425C82.2601 42.6628 86.1899 45.3642 91.6475 45.3642C96.8329 45.3642 100.571 42.6628 100.571 38.9249C100.571 35.7046 98.3066 33.7389 93.0938 32.4296L88.0454 31.1471C80.7864 29.3458 77.5113 26.0707 77.5113 20.6679C77.5113 14.0094 83.324 9.39697 91.5932 9.39697C99.6158 9.39697 105.32 14.0362 105.511 20.7227H100.19C99.7797 16.6292 96.4504 14.1178 91.4568 14.1178C86.5168 14.1178 83.0785 16.656 83.0785 20.3671C83.0785 23.2597 85.2075 24.9795 90.4471 26.3168L94.6496 27.4081C102.782 29.4007 106.111 32.5661 106.111 38.2698C106.111 45.5288 100.353 50.0864 91.1833 50.0864C82.6692 50.0864 76.8565 45.5556 76.4199 38.5427H81.7961V38.5425Z" fill="#D2D2D2"/>
<path d="M139.914 49.4309H134.565L128.315 27.6539H128.206L121.984 49.4309H116.636L108.722 20.9126H113.906L119.419 43.8089H119.528L125.75 20.9126H130.771L137.048 43.8089H137.158L142.67 20.9126H147.8L139.914 49.4309Z" fill="#D2D2D2"/>
<path d="M151.255 13.2444C151.255 11.5259 152.674 10.1338 154.394 10.1338C156.14 10.1338 157.559 11.5259 157.559 13.2444C157.559 14.9641 156.14 16.3831 154.394 16.3831C152.674 16.3831 151.255 14.9642 151.255 13.2444ZM151.801 20.9127H157.013V49.431H151.801V20.9127Z" fill="#D2D2D2"/>
<path d="M191.051 25.1156V20.9124H185.539V14.0907H180.353V20.9124H176.123H170.39V18.4022C170.417 15.864 171.399 14.7995 173.747 14.7995C174.51 14.7995 175.274 14.8823 175.902 14.9907V10.8972C174.974 10.7608 174.128 10.6792 173.146 10.6792C167.579 10.6792 165.232 12.9994 165.232 18.3206V20.9124H161.248V25.1156H165.232V49.4307H170.417V25.1156H176.123H180.353V41.9537C180.353 47.4662 182.455 49.5939 187.913 49.5939C189.086 49.5939 190.423 49.5123 191.024 49.3759V45.1192C190.669 45.174 189.632 45.2556 189.059 45.2556C186.63 45.2556 185.539 44.1095 185.539 41.5445V25.1156H191.051Z" fill="#D2D2D2"/>
</svg>
