<svg width="25" height="33" viewBox="0 0 25 33" fill="none" xmlns="http://www.w3.org/2000/svg">
<path d="M11.5002 13.6762C12.6324 13.6762 13.5502 12.7584 13.5502 11.6262C13.5502 10.494 12.6324 9.57617 11.5002 9.57617C10.368 9.57617 9.4502 10.494 9.4502 11.6262C9.4502 12.7584 10.368 13.6762 11.5002 13.6762Z" fill="#D2D2D2"/>
<path d="M11.5 15.8263C17.5751 15.8263 22.5 13.9459 22.5 11.6263C22.5 9.30667 17.5751 7.42627 11.5 7.42627C5.42487 7.42627 0.5 9.30667 0.5 11.6263C0.5 13.9459 5.42487 15.8263 11.5 15.8263Z" stroke="#D2D2D2"/>
<path d="M7.86259 13.7263C10.9002 18.9875 14.9911 22.3124 16.9999 21.1526C19.0087 19.9928 18.1748 14.7875 15.1372 9.52628C12.0996 4.26506 8.00873 0.940202 5.9999 2.1C3.99107 3.2598 4.82503 8.46506 7.86259 13.7263Z" stroke="#D2D2D2"/>
<path d="M7.86259 9.52647C4.82503 14.7877 3.99107 19.993 5.9999 21.1528C8.00873 22.3126 12.0996 18.9877 15.1372 13.7265C18.1748 8.46526 19.0087 3.25999 16.9999 2.1002C14.9911 0.940397 10.9002 4.26526 7.86259 9.52647Z" stroke="#D2D2D2"/>
<path d="M1.92871 25.3945C2.51465 25.3945 2.99805 25.4678 3.37891 25.6143C3.76302 25.7575 4.04948 25.9772 4.23828 26.2734C4.42708 26.5697 4.52148 26.9473 4.52148 27.4062C4.52148 27.7839 4.45312 28.0996 4.31641 28.3535C4.17969 28.6042 4.00065 28.8076 3.7793 28.9639C3.55794 29.1201 3.32194 29.2406 3.07129 29.3252L5.0293 32.5332H4.0625L2.31445 29.5547H0.830078V32.5332H0V25.3945H1.92871ZM1.87988 26.1123H0.830078V28.8516H1.96289C2.54557 28.8516 2.97363 28.7327 3.24707 28.4951C3.52376 28.2575 3.66211 27.9076 3.66211 27.4453C3.66211 26.9603 3.51562 26.6169 3.22266 26.415C2.93294 26.2132 2.48535 26.1123 1.87988 26.1123Z" fill="#D2D2D2"/>
<path d="M8.11035 27.084C8.56608 27.084 8.95671 27.1849 9.28223 27.3867C9.60775 27.5885 9.85677 27.8717 10.0293 28.2363C10.2018 28.5977 10.2881 29.0208 10.2881 29.5059V30.0088H6.5918C6.60156 30.637 6.75781 31.1156 7.06055 31.4443C7.36328 31.7731 7.78971 31.9375 8.33984 31.9375C8.67839 31.9375 8.97786 31.9066 9.23828 31.8447C9.4987 31.7829 9.76888 31.6917 10.0488 31.5713V32.2842C9.77865 32.4046 9.51009 32.4925 9.24316 32.5479C8.97949 32.6032 8.66699 32.6309 8.30566 32.6309C7.79134 32.6309 7.34212 32.5267 6.95801 32.3184C6.57715 32.1068 6.28092 31.7975 6.06934 31.3906C5.85775 30.9837 5.75195 30.4857 5.75195 29.8965C5.75195 29.3203 5.84798 28.8223 6.04004 28.4023C6.23535 27.9792 6.50879 27.6536 6.86035 27.4258C7.21517 27.1979 7.63184 27.084 8.11035 27.084ZM8.10059 27.748C7.66764 27.748 7.32259 27.8896 7.06543 28.1729C6.80827 28.4561 6.65527 28.8516 6.60645 29.3594H9.43848C9.43522 29.0404 9.38477 28.7604 9.28711 28.5195C9.19271 28.2754 9.04785 28.0866 8.85254 27.9531C8.65723 27.8164 8.40658 27.748 8.10059 27.748Z" fill="#D2D2D2"/>
<path d="M13.667 27.0938C14.305 27.0938 14.7786 27.237 15.0879 27.5234C15.3971 27.8099 15.5518 28.2673 15.5518 28.8955V32.5332H14.9609L14.8047 31.7422H14.7656C14.6159 31.9375 14.4596 32.1019 14.2969 32.2354C14.1341 32.3656 13.9453 32.4648 13.7305 32.5332C13.5189 32.5983 13.2585 32.6309 12.9492 32.6309C12.6237 32.6309 12.334 32.5739 12.0801 32.46C11.8294 32.346 11.6309 32.1735 11.4844 31.9424C11.3411 31.7113 11.2695 31.4183 11.2695 31.0635C11.2695 30.5296 11.4811 30.1195 11.9043 29.833C12.3275 29.5465 12.972 29.3903 13.8379 29.3643L14.7607 29.3252V28.998C14.7607 28.5358 14.6615 28.2119 14.4629 28.0264C14.2643 27.8408 13.9844 27.748 13.623 27.748C13.3431 27.748 13.0762 27.7887 12.8223 27.8701C12.5684 27.9515 12.3275 28.0475 12.0996 28.1582L11.8506 27.543C12.0915 27.4193 12.3682 27.3135 12.6807 27.2256C12.9932 27.1377 13.3219 27.0938 13.667 27.0938ZM14.751 29.8965L13.9355 29.9307C13.2682 29.9567 12.7979 30.0658 12.5244 30.2578C12.251 30.4499 12.1143 30.7217 12.1143 31.0732C12.1143 31.3792 12.207 31.6055 12.3926 31.752C12.5781 31.8984 12.8239 31.9717 13.1299 31.9717C13.6051 31.9717 13.9941 31.8398 14.2969 31.5762C14.5996 31.3125 14.751 30.917 14.751 30.3896V29.8965Z" fill="#D2D2D2"/>
<path d="M19.3652 32.6309C18.8835 32.6309 18.4587 32.5316 18.0908 32.333C17.723 32.1344 17.4365 31.8317 17.2314 31.4248C17.0264 31.0179 16.9238 30.5052 16.9238 29.8867C16.9238 29.2389 17.0312 28.71 17.2461 28.2998C17.4642 27.8864 17.7637 27.5804 18.1445 27.3818C18.5254 27.1833 18.9583 27.084 19.4434 27.084C19.7103 27.084 19.9674 27.1117 20.2148 27.167C20.4655 27.2191 20.6706 27.2858 20.8301 27.3672L20.5859 28.0459C20.4232 27.9808 20.2344 27.9222 20.0195 27.8701C19.8079 27.818 19.6094 27.792 19.4238 27.792C19.0527 27.792 18.7435 27.8717 18.4961 28.0312C18.252 28.1908 18.068 28.4251 17.9443 28.7344C17.8239 29.0436 17.7637 29.4245 17.7637 29.877C17.7637 30.3099 17.8223 30.6794 17.9395 30.9854C18.0599 31.2913 18.2373 31.5257 18.4717 31.6885C18.7093 31.848 19.0055 31.9277 19.3604 31.9277C19.6436 31.9277 19.8991 31.8984 20.127 31.8398C20.3548 31.778 20.5615 31.7064 20.7471 31.625V32.3477C20.568 32.4388 20.3678 32.5088 20.1465 32.5576C19.9284 32.6064 19.668 32.6309 19.3652 32.6309Z" fill="#D2D2D2"/>
<path d="M23.7451 31.9668C23.8786 31.9668 24.0153 31.9554 24.1553 31.9326C24.2952 31.9098 24.4092 31.8822 24.4971 31.8496V32.4795C24.4027 32.5218 24.2708 32.5576 24.1016 32.5869C23.9355 32.6162 23.7728 32.6309 23.6133 32.6309C23.3301 32.6309 23.0729 32.582 22.8418 32.4844C22.6107 32.3835 22.4251 32.2142 22.2852 31.9766C22.1484 31.7389 22.0801 31.4102 22.0801 30.9902V27.8164H21.3184V27.4209L22.085 27.1035L22.4072 25.9414H22.8955V27.1816H24.4629V27.8164H22.8955V30.9658C22.8955 31.3011 22.972 31.5518 23.125 31.7178C23.2812 31.8838 23.488 31.9668 23.7451 31.9668Z" fill="#D2D2D2"/>
</svg>
