<svg width="106" height="162" viewBox="0 0 106 162" fill="none" xmlns="http://www.w3.org/2000/svg">
<g clip-path="url(#clip0_111_4021)">
<path d="M105.569 29.2426C105.562 28.1808 105.551 27.1195 105.522 26.0565C105.46 23.7442 105.323 21.4108 104.912 19.1231C104.495 16.7999 103.813 14.6396 102.739 12.5292C101.684 10.4566 100.305 8.5601 98.6606 6.9153C97.0162 5.2706 95.1197 3.8921 93.0462 2.8369C90.9376 1.7637 88.777 1.0822 86.4559 0.6651C84.167 0.2529 81.8336 0.1171 79.5195 0.0546C78.457 0.0258 77.3955 0.0137 76.3334 0.0072C75.0729 0 73.8113 0 72.5509 0H44.6035H33.0255C31.7639 0 30.5037 0 29.2433 0.0072C28.1809 0.0138 27.1181 0.0258 26.0572 0.0546C25.4788 0.0702 24.8991 0.0904 24.3191 0.1184C22.5791 0.2023 20.8366 0.356 19.1208 0.6651C17.38 0.978 15.7293 1.4395 14.1233 2.1035C13.5879 2.3248 13.0575 2.5687 12.5303 2.837C10.9752 3.6284 9.51916 4.6017 8.19496 5.7327C7.75356 6.1097 7.32676 6.5042 6.91576 6.9154C5.27076 8.5602 3.89196 10.4566 2.83736 12.5293C1.76296 14.6397 1.08206 16.8 0.664663 19.1232C0.253963 21.4109 0.117563 23.7443 0.0553627 26.0566C0.0261627 27.1196 0.0138627 28.1808 0.00696269 29.2427C-0.00113731 30.5034 6.26939e-05 31.7648 6.26939e-05 33.0255V50.2365V72.5505C6.26939e-05 73.8124 -0.00113731 75.0725 0.00696269 76.3345C0.0138627 77.3964 0.0261627 78.4576 0.0553627 79.5188C0.117563 81.8324 0.253963 84.1664 0.664663 86.4529C1.08206 88.7755 1.76286 90.9376 2.83736 93.0474C3.89196 95.1205 5.27076 97.0165 6.91576 98.6606C8.55956 100.306 10.4567 101.685 12.5303 102.74C14.6392 103.814 16.7995 104.494 19.1212 104.911C21.4086 105.323 23.7438 105.46 26.0573 105.522C27.1182 105.55 28.181 105.563 29.2434 105.569C30.5038 105.578 31.764 105.577 33.0256 105.577H72.5509C73.8113 105.577 75.0729 105.578 76.3334 105.569C77.3955 105.563 78.457 105.55 79.5195 105.522C81.8336 105.46 84.167 105.323 86.4559 104.911C88.7769 104.494 90.9376 103.814 93.0462 102.74C95.1197 101.685 97.0162 100.306 98.6606 98.6606C100.305 97.0165 101.684 95.1206 102.739 93.0474C103.813 90.9376 104.495 88.7754 104.912 86.4529C105.323 84.1664 105.46 81.8324 105.522 79.5188C105.551 78.4576 105.562 77.3964 105.569 76.3345C105.577 75.0726 105.576 73.8125 105.576 72.5505V33.0255C105.576 31.7647 105.577 30.5034 105.569 29.2426Z" fill="#D2D2D2"/>
<path d="M83.6572 65.1701C83.6547 65.167 83.6524 65.1647 83.6499 65.1616C83.7668 64.7642 83.8872 64.3691 83.9894 63.9617C88.3714 46.5037 77.6768 25.8632 59.5794 14.9956C67.5101 25.7467 71.0168 38.7687 67.9013 50.1567C67.6235 51.1724 67.2893 52.1474 66.92 53.0949C66.5193 52.8317 66.0146 52.5327 65.3366 52.159C65.3366 52.159 47.3345 41.0438 27.8231 21.384C27.3111 20.8678 38.2275 36.9864 50.6161 50.075C44.7793 46.7994 28.513 34.9642 18.2156 25.5394C19.4809 27.6493 20.9856 29.6809 22.6396 31.6369C31.2391 42.5426 42.4536 55.9987 55.8894 66.3312C46.4493 72.1082 33.1104 72.5574 19.8294 66.3371C16.5445 64.7976 13.4563 62.9401 10.5977 60.8297C16.2196 69.8219 24.878 77.5804 35.4161 82.1096C47.9832 87.5102 60.4803 87.144 69.788 82.198L69.7807 82.2087C69.8123 82.1887 69.8479 82.1679 69.8804 82.1477C70.2982 81.9238 70.7115 81.6935 71.116 81.4511C75.6114 79.1426 84.3855 76.8649 89.1004 86.0383C90.261 88.2959 92.7284 76.3316 83.6572 65.1701Z" fill="white"/>
<path d="M7.16653 150.9C7.57263 154.506 11.0118 156.87 15.7881 156.87C20.3262 156.87 23.598 154.506 23.598 151.234C23.598 148.416 21.6159 146.696 17.0538 145.55L12.6356 144.428C6.28283 142.851 3.41663 139.985 3.41663 135.256C3.41663 129.429 8.50373 125.393 15.7406 125.393C22.7617 125.393 27.7534 129.453 27.9207 135.304H23.2637C22.905 131.722 19.9914 129.524 15.6211 129.524C11.2978 129.524 8.28873 131.745 8.28873 134.993C8.28873 137.525 10.1519 139.03 14.7375 140.2L18.4154 141.155C25.5325 142.899 28.4461 145.669 28.4461 150.661C28.4461 157.014 23.4065 161.003 15.3818 161.003C7.93063 161.003 2.84353 157.037 2.46143 150.9H7.16653V150.9Z" fill="#D2D2D2"/>
<path d="M58.0295 160.429H53.348L47.8788 141.37H47.7834L42.3382 160.429H37.6573L30.731 135.471H35.2686L40.0929 155.509H40.1888L45.634 135.471H50.0282L55.5214 155.509H55.6173L60.4416 135.471H64.9312L58.0295 160.429Z" fill="#D2D2D2"/>
<path d="M67.9541 128.76C67.9541 127.256 69.1964 126.038 70.7009 126.038C72.2294 126.038 73.4712 127.256 73.4712 128.76C73.4712 130.265 72.2294 131.507 70.7009 131.507C69.1965 131.507 67.9541 130.265 67.9541 128.76ZM68.4322 135.471H72.9938V160.429H68.4322V135.471Z" fill="#D2D2D2"/>
<path d="M102.783 139.149V135.471H97.9587V129.501H93.4206V135.471H84.7009V133.274C84.7243 131.053 85.5846 130.121 87.6385 130.121C88.3068 130.121 88.9757 130.194 89.5252 130.288V126.706C88.713 126.587 87.9727 126.515 87.1131 126.515C82.2408 126.515 80.1868 128.546 80.1868 133.203V135.471H76.7002V139.149H80.1868V160.429H84.7243V139.149H93.4205V153.886C93.4205 158.71 95.2597 160.572 100.036 160.572C101.063 160.572 102.233 160.501 102.759 160.381V156.656C102.448 156.704 101.541 156.775 101.039 156.775C98.9137 156.775 97.9586 155.772 97.9586 153.527V139.149H102.783Z" fill="#D2D2D2"/>
</g>
<defs>
<clipPath id="clip0_111_4021">
<rect width="105.576" height="161.002" fill="white"/>
</clipPath>
</defs>
</svg>
