<svg width="1004" height="250" viewBox="0 0 1004 250" fill="none" xmlns="http://www.w3.org/2000/svg">
<path d="M990 0H14C6.26801 0 0 6.26801 0 14V236C0 243.732 6.26801 250 14 250H990C997.732 250 1004 243.732 1004 236V14C1004 6.26801 997.732 0 990 0Z" fill="#D2D2D2"/>
<path fill-rule="evenodd" clip-rule="evenodd" d="M613 188.697V179.324C621.556 184.743 630.222 187.452 639 187.452C648.333 187.452 655.417 185.531 660.25 181.688C665.083 177.845 667.5 172.468 667.5 165.556C667.5 159.474 665.875 154.622 662.625 151C659.491 147.508 652.832 142.795 642.646 136.86L641.5 136.196C629.389 129.173 621.722 123.298 618.5 118.571C615.278 113.843 613.667 108.383 613.667 102.19C613.667 93.7855 616.944 86.6528 623.5 80.7916C630.056 74.9305 638.806 72 649.75 72C656.861 72 663.972 73.1888 671.083 75.5664V84.1922C664.083 81.0404 656.611 79.4646 648.667 79.4646C640.556 79.4646 634.125 81.5104 629.375 85.6022C624.625 89.6939 622.25 94.8914 622.25 101.195C622.25 107.277 623.875 112.115 627.125 115.709C630.375 119.303 637.389 124.197 648.167 130.39C659.333 136.693 666.764 142.292 670.458 147.185C674.153 152.079 676 157.705 676 164.063C676 173.187 672.819 180.624 666.458 186.374C660.097 192.125 651.111 195 639.5 195C635.389 195 630.653 194.364 625.292 193.092C619.931 191.821 615.833 190.355 613 188.697ZM316.828 90.7629H351V74H263V90.7629H297.089V193H316.828V90.7629ZM382.5 206.606L421 108H401.5L380.167 169.919C379.661 171.817 379.264 173.362 378.977 174.555L378.667 175.895H378.25C377.806 173.998 377.452 172.516 377.189 171.45L376.75 169.753L356.417 108H335L368.917 192.827L363.167 206.772C359.611 213.854 354.222 217.396 347 217.396C344.5 217.396 341.722 216.898 338.667 215.902V231.921C341.389 232.64 344.778 233 348.833 233C363.278 233 374.5 224.202 382.5 206.606ZM452.647 180.406H452.314V232H433V107.991H452.314V122.922H452.647C459.251 111.64 468.908 106 481.618 106C492.44 106 500.876 109.788 506.926 117.364C512.975 124.94 516 135.115 516 147.889C516 162.046 512.587 173.382 505.76 181.899C498.934 190.415 489.61 194.673 477.788 194.673C466.91 194.673 458.53 189.917 452.647 180.406ZM452 157.889V147.411C452 140.151 454.093 134.101 458.28 129.26C462.466 124.42 467.997 122 474.873 122C481.361 122 486.504 124.351 490.302 129.054C494.101 133.757 496 140.261 496 148.566C496 158.467 493.962 166.181 489.887 171.708C485.811 177.236 480.197 180 473.043 180C466.944 180 461.912 177.855 457.947 173.565C453.982 169.275 452 164.049 452 157.889V157.889ZM603 155.73H545.394C545.615 163.59 548.022 169.65 552.616 173.912C557.21 178.174 563.523 180.305 571.556 180.305C580.58 180.305 588.86 177.593 596.398 172.169V187.694C588.695 192.565 578.516 195 565.862 195C553.427 195 543.675 191.139 536.605 183.418C529.535 175.697 526 164.835 526 150.832C526 137.604 529.893 126.825 537.678 118.495C545.463 110.165 555.133 106 566.687 106C578.241 106 587.182 109.736 593.509 117.208C599.836 124.68 603 135.058 603 148.341V155.73ZM580.146 125.792C583.327 129.653 584.945 135.056 585 142H546C546.878 135.444 549.223 130.139 553.035 126.083C556.847 122.028 561.496 120 566.981 120C572.576 120 576.964 121.931 580.146 125.792V125.792ZM724.907 195C733.72 195 741.306 193.066 747.665 189.199V181.244C741.306 185.774 733.832 188.039 725.242 188.039C715.87 188.039 708.326 184.697 702.609 178.012C696.891 171.327 694.032 162.488 694.032 151.494C694.032 140.114 697.156 130.847 703.404 123.692C709.651 116.538 717.795 112.961 727.835 112.961C735.143 112.961 741.864 114.839 748 118.596V109.978C741.864 107.326 735.533 106 729.007 106C716.4 106 706.081 110.295 698.049 118.886C690.016 127.477 686 138.512 686 151.992C686 164.809 689.57 175.181 696.71 183.108C703.85 191.036 713.249 195 724.907 195ZM798 115.667C795.46 113.833 792.479 112.917 789.056 112.917C782.375 112.917 776.772 116.389 772.244 123.333C767.717 130.278 765.453 140.139 765.453 152.917V193H758V107.667H765.453V126.583H765.785C767.717 120.083 770.781 115.028 774.977 111.417C779.173 107.806 784.032 106 789.553 106C792.7 106 795.516 106.5 798 107.5V115.667ZM809.942 85.1184C811.236 86.3728 812.727 87 814.416 87C816.216 87 817.764 86.3443 819.058 85.0329C820.353 83.7215 821 82.1535 821 80.3289C821 78.3903 820.339 76.8509 819.016 75.7105C817.694 74.5702 816.16 74 814.416 74C812.784 74 811.306 74.5844 809.984 75.7533C808.661 76.9222 808 78.4474 808 80.3289C808 82.2676 808.647 83.864 809.942 85.1184V85.1184ZM810 193V108H818V193H810ZM843.624 177.87H843.955C850.032 189.309 859.424 195.029 872.13 195.029C883.51 195.029 892.667 190.649 899.6 181.89C906.533 173.131 910 161.65 910 147.447C910 134.682 906.975 124.582 900.926 117.149C894.877 109.716 886.466 106 875.693 106C868.898 106 862.669 107.699 857.007 111.098C851.344 114.497 846.994 119.318 843.955 125.563H843.624V108.072H836V232H843.624V177.87ZM844 146.278V156.957C844 165.456 846.706 172.754 852.118 178.853C857.53 184.951 864.643 188 873.458 188C882.218 188 889.331 184.289 894.799 176.866C900.266 169.443 903 159.689 903 147.603C903 137.007 900.489 128.591 895.468 122.354C890.447 116.118 883.752 113 875.383 113C865.396 113 857.669 116.311 852.201 122.934C846.734 129.556 844 137.338 844 146.278V146.278ZM946.874 195C950.335 195 954.044 194.062 958 192.186V185.067C954.374 187.109 950.995 188.13 947.863 188.13C943.467 188.13 940.349 186.819 938.508 184.198C936.668 181.577 935.747 177.342 935.747 171.492V115.537H958V108.584H935.747V84C934.538 84.4415 933.275 84.8553 931.956 85.2416C930.637 85.6831 929.374 86.1245 928.165 86.566V108.584H913V115.537H928.165V172.485C928.165 187.495 934.401 195 946.874 195V195Z" fill="white"/>
</svg>
